AtmaInstanceTest.ufo
<glyph name="ampersand" format="1">
  <advance width="794"/>
  <unicode hex="0026"/>
  <outline>
    <contour>
      <point x="766" y="31" type="curve"/>
      <point x="482" y="141"/>
      <point x="338" y="307"/>
      <point x="338" y="528" type="curve" smooth="yes"/>
      <point x="338" y="610"/>
      <point x="363" y="652"/>
      <point x="399" y="652" type="curve" smooth="yes"/>
      <point x="433" y="652"/>
      <point x="450" y="623"/>
      <point x="450" y="576" type="curve" smooth="yes"/>
      <point x="450" y="514"/>
      <point x="414" y="461"/>
      <point x="330" y="439" type="curve"/>
      <point x="337" y="390" type="line"/>
      <point x="473" y="413"/>
      <point x="564" y="478"/>
      <point x="564" y="586" type="curve" smooth="yes"/>
      <point x="564" y="665"/>
      <point x="506" y="722"/>
      <point x="415" y="722" type="curve" smooth="yes"/>
      <point x="286" y="722"/>
      <point x="221" y="628"/>
      <point x="221" y="504" type="curve" smooth="yes"/>
      <point x="221" y="230"/>
      <point x="427" y="40"/>
      <point x="692" y="-61" type="curve"/>
      <point x="727" y="-39"/>
      <point x="752" y="-7"/>
    </contour>
    <contour>
      <point x="654" y="393"/>
      <point x="608" y="393"/>
      <point x="571" y="383" type="curve"/>
      <point x="579" y="348"/>
      <point x="583" y="318"/>
      <point x="583" y="279" type="curve" smooth="yes"/>
      <point x="583" y="138"/>
      <point x="488" y="25"/>
      <point x="365" y="25" type="curve" smooth="yes"/>
      <point x="247" y="25"/>
      <point x="167" y="100"/>
      <point x="167" y="213" type="curve" smooth="yes"/>
      <point x="167" y="301"/>
      <point x="222" y="353"/>
      <point x="296" y="370" type="curve"/>
      <point x="293" y="418" type="line"/>
      <point x="129" y="400"/>
      <point x="40" y="304"/>
      <point x="40" y="183" type="curve" smooth="yes"/>
      <point x="40" y="42"/>
      <point x="154" y="-64"/>
      <point x="340" y="-64" type="curve" smooth="yes"/>
      <point x="536" y="-64"/>
      <point x="676" y="57"/>
      <point x="695" y="273" type="curve" smooth="yes"/>
      <point x="698" y="305"/>
      <point x="699" y="337"/>
      <point x="697" y="373" type="curve"/>
    </contour>
  </outline>
</glyph>
<glyph name="quotesingle" format="1">
  <advance width="184"/>
  <unicode hex="0027"/>
  <outline>
    <contour>
      <point x="141" y="736" type="curve"/>
      <point x="122" y="742"/>
      <point x="103" y="744"/>
      <point x="87" y="744" type="curve" smooth="yes"/>
      <point x="68" y="744"/>
      <point x="47" y="741"/>
      <point x="35" y="736" type="curve"/>
      <point x="39" y="655"/>
      <point x="41" y="588"/>
      <point x="44" y="493" type="curve"/>
      <point x="67" y="492"/>
      <point x="98" y="493"/>
      <point x="113" y="498" type="curve"/>
      <point x="130" y="602"/>
      <point x="137" y="672"/>
    </contour>
  </outline>
</glyph>
<glyph name="parenright" format="1">
  <advance width="390"/>
  <unicode hex="0029"/>
  <outline>
    <contour>
      <point x="223" y="326" type="curve" smooth="yes"/>
      <point x="223" y="169"/>
      <point x="152" y="3"/>
      <point x="-17" y="-110" type="curve"/>
      <point x="8" y="-141"/>
      <point x="33" y="-160"/>
      <point x="60" y="-171" type="curve"/>
      <point x="231" y="-43"/>
      <point x="324" y="129"/>
      <point x="324" y="332" type="curve" smooth="yes"/>
      <point x="324" y="517"/>
      <point x="234" y="688"/>
      <point x="82" y="807" type="curve"/>
      <point x="38" y="787"/>
      <point x="21" y="770"/>
      <point x="4" y="748" type="curve"/>
      <point x="153" y="629"/>
      <point x="223" y="492"/>
    </contour>
  </outline>
</glyph>
<glyph name="asterisk" format="1">
  <advance width="470"/>
  <unicode hex="002A"/>
  <outline>
    <contour>
      <point x="414" y="400" type="curve" smooth="yes"/>
      <point x="424" y="417"/>
      <point x="430" y="437"/>
      <point x="431" y="450" type="curve"/>
      <point x="368" y="478"/>
      <point x="314" y="503"/>
      <point x="242" y="538" type="curve"/>
      <point x="232" y="523"/>
      <point x="223" y="501"/>
      <point x="220" y="489" type="curve"/>
      <point x="295" y="434"/>
      <point x="345" y="399"/>
      <point x="393" y="371" type="curve"/>
      <point x="402" y="381"/>
      <point x="408" y="388"/>
    </contour>
    <contour>
      <point x="420" y="610" type="curve" smooth="yes"/>
      <point x="411" y="627"/>
      <point x="396" y="643"/>
      <point x="386" y="651" type="curve"/>
      <point x="332" y="605"/>
      <point x="288" y="574"/>
      <point x="215" y="530" type="curve"/>
      <point x="223" y="515"/>
      <point x="237" y="495"/>
      <point x="246" y="487" type="curve"/>
      <point x="328" y="522"/>
      <point x="390" y="550"/>
      <point x="434" y="578" type="curve"/>
      <point x="430" y="590"/>
      <point x="427" y="599"/>
    </contour>
    <contour>
      <point x="276" y="717" type="curve"/>
      <point x="263" y="720"/>
      <point x="254" y="721"/>
      <point x="241" y="721" type="curve" smooth="yes"/>
      <point x="222" y="721"/>
      <point x="201" y="716"/>
      <point x="189" y="711" type="curve"/>
      <point x="196" y="640"/>
      <point x="202" y="582"/>
      <point x="208" y="500" type="curve"/>
      <point x="226" y="499"/>
      <point x="250" y="502"/>
      <point x="261" y="506" type="curve"/>
      <point x="272" y="600"/>
      <point x="276" y="660"/>
    </contour>
    <contour>
      <point x="281" y="310" type="curve"/>
      <point x="269" y="379"/>
      <point x="263" y="432"/>
      <point x="262" y="519" type="curve"/>
      <point x="245" y="519"/>
      <point x="220" y="516"/>
      <point x="209" y="513" type="curve"/>
      <point x="198" y="424"/>
      <point x="192" y="357"/>
      <point x="194" y="304" type="curve"/>
      <point x="207" y="301"/>
      <point x="216" y="300"/>
      <point x="229" y="300" type="curve" smooth="yes"/>
      <point x="248" y="300"/>
      <point x="269" y="305"/>
    </contour>
    <contour>
      <point x="77" y="650" type="curve"/>
      <point x="68" y="640"/>
      <point x="62" y="633"/>
      <point x="56" y="621" type="curve" smooth="yes"/>
      <point x="46" y="604"/>
      <point x="40" y="584"/>
      <point x="39" y="571" type="curve"/>
      <point x="105" y="546"/>
      <point x="154" y="525"/>
      <point x="230" y="481" type="curve"/>
      <point x="240" y="496"/>
      <point x="250" y="519"/>
      <point x="253" y="531" type="curve"/>
      <point x="180" y="585"/>
      <point x="125" y="624"/>
    </contour>
    <contour>
      <point x="36" y="443" type="curve"/>
      <point x="40" y="431"/>
      <point x="43" y="422"/>
      <point x="50" y="411" type="curve" smooth="yes"/>
      <point x="59" y="394"/>
      <point x="74" y="378"/>
      <point x="84" y="370" type="curve"/>
      <point x="142" y="411"/>
      <point x="190" y="446"/>
      <point x="258" y="492" type="curve"/>
      <point x="249" y="509"/>
      <point x="236" y="528"/>
      <point x="226" y="536" type="curve"/>
      <point x="139" y="498"/>
      <point x="85" y="472"/>
    </contour>
  </outline>
</glyph>
<glyph name="hyphen" format="1">
  <advance width="325"/>
  <unicode hex="002D"/>
  <outline>
    <contour>
      <point x="27" y="302"/>
      <point x="26" y="273"/>
      <point x="28" y="237" type="curve"/>
      <point x="74" y="218"/>
      <point x="197" y="215"/>
      <point x="286" y="231" type="curve"/>
      <point x="296" y="266"/>
      <point x="297" y="305"/>
      <point x="297" y="333" type="curve"/>
      <point x="265" y="329"/>
      <point x="230" y="328"/>
      <point x="171" y="328" type="curve" smooth="yes"/>
      <point x="135" y="328"/>
      <point x="75" y="331"/>
      <point x="39" y="339" type="curve"/>
    </contour>
  </outline>
</glyph>
<glyph name="one" format="1">
  <advance width="402"/>
  <unicode hex="0031"/>
  <outline>
    <contour>
      <point x="271" y="-33" type="curve"/>
      <point x="292" y="224"/>
      <point x="345" y="520"/>
      <point x="395" y="647" type="curve"/>
      <point x="258" y="640" type="line"/>
      <point x="222" y="508"/>
      <point x="184" y="292"/>
      <point x="175" y="127" type="curve" smooth="yes"/>
      <point x="168" y="61"/>
      <point x="166" y="15"/>
      <point x="165" y="-42" type="curve"/>
      <point x="178" y="-45"/>
      <point x="190" y="-46"/>
      <point x="208" y="-45" type="curve" smooth="yes"/>
      <point x="235" y="-45"/>
      <point x="256" y="-40"/>
    </contour>
    <contour>
      <point x="319" y="697" type="curve"/>
      <point x="227" y="616"/>
      <point x="121" y="550"/>
      <point x="17" y="498" type="curve"/>
      <point x="34" y="458"/>
      <point x="56" y="429"/>
      <point x="86" y="405" type="curve"/>
      <point x="213" y="484"/>
      <point x="309" y="560"/>
      <point x="395" y="647" type="curve"/>
      <point x="374" y="669"/>
      <point x="351" y="684"/>
    </contour>
  </outline>
</glyph>
<glyph name="three" format="1">
  <advance width="476"/>
  <unicode hex="0033"/>
  <outline>
    <contour>
      <point x="444" y="541" type="curve"/>
      <point x="445" y="579"/>
      <point x="440" y="616"/>
      <point x="429" y="645" type="curve"/>
      <point x="309" y="644"/>
      <point x="151" y="627"/>
      <point x="20" y="595" type="curve"/>
      <point x="19" y="562"/>
      <point x="22" y="523"/>
      <point x="31" y="493" type="curve"/>
      <point x="188" y="530"/>
      <point x="326" y="537"/>
    </contour>
    <contour>
      <point x="241" y="-57" type="curve" smooth="yes"/>
      <point x="361" y="-57"/>
      <point x="458" y="37"/>
      <point x="458" y="166" type="curve" smooth="yes"/>
      <point x="458" y="275"/>
      <point x="389" y="344"/>
      <point x="248" y="371" type="curve"/>
      <point x="240" y="342" type="line"/>
      <point x="346" y="417"/>
      <point x="394" y="469"/>
      <point x="444" y="541" type="curve"/>
      <point x="352" y="597" type="line"/>
      <point x="299" y="511"/>
      <point x="230" y="443"/>
      <point x="133" y="382" type="curve"/>
      <point x="133" y="351"/>
      <point x="136" y="333"/>
      <point x="142" y="306" type="curve"/>
      <point x="271" y="308"/>
      <point x="328" y="235"/>
      <point x="328" y="137" type="curve" smooth="yes"/>
      <point x="328" y="57"/>
      <point x="294" y="20"/>
      <point x="246" y="20" type="curve" smooth="yes"/>
      <point x="198" y="20"/>
      <point x="149" y="69"/>
      <point x="149" y="187" type="curve"/>
      <point x="103" y="186"/>
      <point x="65" y="179"/>
      <point x="31" y="164" type="curve"/>
      <point x="39" y="9"/>
      <point x="131" y="-57"/>
    </contour>
  </outline>
</glyph>
<glyph name="seven" format="1">
  <advance width="444"/>
  <unicode hex="0037"/>
  <outline>
    <contour>
      <point x="135" y="-21" type="curve"/>
      <point x="218" y="218"/>
      <point x="303" y="376"/>
      <point x="431" y="544" type="curve"/>
      <point x="437" y="574"/>
      <point x="440" y="599"/>
      <point x="435" y="634" type="curve"/>
      <point x="284" y="635"/>
      <point x="163" y="651"/>
      <point x="13" y="678" type="curve"/>
      <point x="-2" y="643"/>
      <point x="-8" y="605"/>
      <point x="-7" y="565" type="curve"/>
      <point x="112" y="551"/>
      <point x="205" y="549"/>
      <point x="337" y="553" type="curve"/>
      <point x="335" y="583" type="line"/>
      <point x="209" y="426"/>
      <point x="104" y="252"/>
      <point x="9" y="-2" type="curve"/>
      <point x="50" y="-19"/>
      <point x="89" y="-25"/>
    </contour>
  </outline>
</glyph>
<glyph name="semicolon" format="1">
  <advance width="214"/>
  <unicode hex="003B"/>
  <outline>
    <contour>
      <point x="187" y="423" type="curve"/>
      <point x="189" y="452"/>
      <point x="188" y="495"/>
      <point x="186" y="538" type="curve"/>
      <point x="170" y="545"/>
      <point x="146" y="549"/>
      <point x="121" y="549" type="curve" smooth="yes"/>
      <point x="96" y="549"/>
      <point x="73" y="547"/>
      <point x="50" y="542" type="curve"/>
      <point x="53" y="501"/>
      <point x="55" y="470"/>
      <point x="57" y="426" type="curve"/>
      <point x="100" y="423"/>
      <point x="139" y="422"/>
    </contour>
    <contour>
      <point x="179" y="101" type="curve"/>
      <point x="144" y="107"/>
      <point x="101" y="109"/>
      <point x="60" y="109" type="curve"/>
      <point x="61" y="4"/>
      <point x="48" y="-90"/>
      <point x="17" y="-211" type="curve"/>
      <point x="44" y="-219"/>
      <point x="71" y="-223"/>
      <point x="103" y="-226" type="curve"/>
      <point x="154" y="-112"/>
      <point x="178" y="-8"/>
    </contour>
  </outline>
</glyph>
<glyph name="equal" format="1">
  <advance width="421"/>
  <unicode hex="003D"/>
  <outline>
    <contour>
      <point x="41" y="440" type="curve"/>
      <point x="37" y="411"/>
      <point x="35" y="388"/>
      <point x="35" y="358" type="curve"/>
      <point x="140" y="344"/>
      <point x="276" y="342"/>
      <point x="387" y="358" type="curve"/>
      <point x="394" y="384"/>
      <point x="398" y="411"/>
      <point x="398" y="438" type="curve"/>
      <point x="262" y="425"/>
      <point x="152" y="426"/>
    </contour>
    <contour>
      <point x="29" y="295" type="curve"/>
      <point x="25" y="267"/>
      <point x="23" y="244"/>
      <point x="23" y="214" type="curve"/>
      <point x="128" y="199"/>
      <point x="264" y="198"/>
      <point x="375" y="214" type="curve"/>
      <point x="382" y="239"/>
      <point x="386" y="266"/>
      <point x="386" y="294" type="curve"/>
      <point x="250" y="281"/>
      <point x="140" y="281"/>
    </contour>
  </outline>
</glyph>
<glyph name="greater" format="1">
  <advance width="420"/>
  <unicode hex="003E"/>
  <outline>
    <contour>
      <point x="345" y="386" type="line"/>
      <point x="253" y="318"/>
      <point x="152" y="262"/>
      <point x="29" y="209" type="curve"/>
      <point x="35" y="180"/>
      <point x="42" y="162"/>
      <point x="54" y="135" type="curve"/>
      <point x="168" y="180"/>
      <point x="302" y="251"/>
      <point x="389" y="317" type="curve"/>
      <point x="391" y="367" type="line"/>
      <point x="308" y="432"/>
      <point x="171" y="505"/>
      <point x="56" y="548" type="curve"/>
      <point x="43" y="524"/>
      <point x="36" y="503"/>
      <point x="31" y="475" type="curve"/>
      <point x="154" y="422"/>
      <point x="260" y="366"/>
      <point x="346" y="298" type="curve"/>
    </contour>
  </outline>
</glyph>
<glyph name="E" format="1">
  <advance width="557"/>
  <unicode hex="0045"/>
  <outline>
    <contour>
      <point x="521" y="-12" type="curve"/>
      <point x="522" y="18"/>
      <point x="518" y="67"/>
      <point x="510" y="90" type="curve"/>
      <point x="429" y="73"/>
      <point x="311" y="60"/>
      <point x="235" y="58" type="curve"/>
      <point x="222" y="160"/>
      <point x="214" y="263"/>
      <point x="210" y="348" type="curve" smooth="yes"/>
      <point x="203" y="483"/>
      <point x="205" y="595"/>
      <point x="212" y="680" type="curve"/>
      <point x="61" y="687" type="line"/>
      <point x="64" y="488"/>
      <point x="94" y="183"/>
      <point x="129" y="-42" type="curve"/>
      <point x="256" y="-40"/>
      <point x="433" y="-27"/>
    </contour>
    <contour>
      <point x="452" y="331" type="curve"/>
      <point x="453" y="371"/>
      <point x="450" y="402"/>
      <point x="442" y="433" type="curve"/>
      <point x="344" y="428"/>
      <point x="264" y="413"/>
      <point x="176" y="392" type="curve"/>
      <point x="182" y="304" type="line"/>
      <point x="272" y="319"/>
      <point x="347" y="326"/>
    </contour>
    <contour>
      <point x="486" y="629" type="curve"/>
      <point x="492" y="658"/>
      <point x="497" y="695"/>
      <point x="497" y="735" type="curve"/>
      <point x="330" y="733"/>
      <point x="205" y="713"/>
      <point x="61" y="687" type="curve"/>
      <point x="86" y="595" type="line"/>
      <point x="213" y="616"/>
      <point x="344" y="628"/>
    </contour>
  </outline>
</glyph>
<glyph name="F" format="1">
  <advance width="530"/>
  <unicode hex="0046"/>
  <outline>
    <contour>
      <point x="440" y="334" type="curve"/>
      <point x="440" y="375"/>
      <point x="438" y="406"/>
      <point x="430" y="438" type="curve"/>
      <point x="341" y="435"/>
      <point x="258" y="422"/>
      <point x="176" y="400" type="curve"/>
      <point x="183" y="311" type="line"/>
      <point x="265" y="323"/>
      <point x="354" y="332"/>
    </contour>
    <contour>
      <point x="227" y="-69" type="curve"/>
      <point x="232" y="50"/>
      <point x="233" y="163"/>
      <point x="231" y="329" type="curve" smooth="yes"/>
      <point x="229" y="469"/>
      <point x="221" y="601"/>
      <point x="204" y="714" type="curve"/>
      <point x="153" y="714"/>
      <point x="94" y="716"/>
      <point x="56" y="719" type="curve"/>
      <point x="95" y="483"/>
      <point x="111" y="168"/>
      <point x="108" y="-81" type="curve"/>
      <point x="155" y="-82"/>
      <point x="193" y="-77"/>
    </contour>
    <contour>
      <point x="491" y="663" type="curve"/>
      <point x="494" y="679"/>
      <point x="497" y="698"/>
      <point x="496" y="719" type="curve" smooth="yes"/>
      <point x="496" y="740"/>
      <point x="493" y="758"/>
      <point x="488" y="774" type="curve"/>
      <point x="335" y="748"/>
      <point x="226" y="730"/>
      <point x="56" y="719" type="curve"/>
      <point x="66" y="701"/>
      <point x="90" y="653"/>
      <point x="90" y="624" type="curve"/>
      <point x="238" y="628"/>
      <point x="352" y="644"/>
    </contour>
  </outline>
</glyph>
<glyph name="I" format="1">
  <advance width="275"/>
  <unicode hex="0049"/>
  <outline>
    <contour>
      <point x="191" y="-17" type="curve"/>
      <point x="201" y="171"/>
      <point x="204" y="343"/>
      <point x="204" y="503" type="curve" smooth="yes"/>
      <point x="204" y="567"/>
      <point x="203" y="622"/>
      <point x="200" y="677" type="curve"/>
      <point x="179" y="682"/>
      <point x="164" y="684"/>
      <point x="142" y="684" type="curve" smooth="yes"/>
      <point x="107" y="684"/>
      <point x="79" y="674"/>
      <point x="59" y="662" type="curve"/>
      <point x="80" y="445"/>
      <point x="86" y="200"/>
      <point x="84" y="-30" type="curve"/>
      <point x="122" y="-29"/>
      <point x="169" y="-23"/>
    </contour>
  </outline>
</glyph>
<glyph name="J" format="1">
  <advance width="490"/>
  <unicode hex="004A"/>
  <outline>
    <contour>
      <point x="213" y="-88" type="curve" smooth="yes"/>
      <point x="300" y="-88"/>
      <point x="365" y="-26"/>
      <point x="393" y="97" type="curve" smooth="yes"/>
      <point x="416" y="195"/>
      <point x="423" y="295"/>
      <point x="423" y="442" type="curve" smooth="yes"/>
      <point x="423" y="536"/>
      <point x="417" y="634"/>
      <point x="409" y="719" type="curve"/>
      <point x="387" y="724"/>
      <point x="366" y="725"/>
      <point x="344" y="724" type="curve" smooth="yes"/>
      <point x="309" y="723"/>
      <point x="277" y="713"/>
      <point x="259" y="701" type="curve"/>
      <point x="280" y="523"/>
      <point x="290" y="354"/>
      <point x="290" y="225" type="curve" smooth="yes"/>
      <point x="290" y="53"/>
      <point x="258" y="0"/>
      <point x="211" y="0" type="curve" smooth="yes"/>
      <point x="165" y="0"/>
      <point x="144" y="47"/>
      <point x="125" y="186" type="curve"/>
      <point x="87" y="180"/>
      <point x="53" y="168"/>
      <point x="24" y="145" type="curve"/>
      <point x="39" y="8"/>
      <point x="112" y="-88"/>
    </contour>
  </outline>
</glyph>
<glyph name="K" format="1">
  <advance width="600"/>
  <unicode hex="004B"/>
  <outline>
    <contour>
      <point x="213" y="-60" type="curve"/>
      <point x="198" y="56"/>
      <point x="191" y="159"/>
      <point x="191" y="305" type="curve" smooth="yes"/>
      <point x="191" y="433"/>
      <point x="198" y="561"/>
      <point x="221" y="696" type="curve"/>
      <point x="201" y="701"/>
      <point x="180" y="704"/>
      <point x="157" y="704" type="curve" smooth="yes"/>
      <point x="122" y="704"/>
      <point x="91" y="695"/>
      <point x="71" y="685" type="curve"/>
      <point x="65" y="596"/>
      <point x="61" y="514"/>
      <point x="61" y="441" type="curve" smooth="yes"/>
      <point x="61" y="263"/>
      <point x="72" y="113"/>
      <point x="100" y="-72" type="curve"/>
      <point x="137" y="-72"/>
      <point x="189" y="-66"/>
    </contour>
    <contour>
      <point x="171" y="200" type="line"/>
      <point x="347" y="324"/>
      <point x="442" y="430"/>
      <point x="545" y="620" type="curve"/>
      <point x="518" y="652"/>
      <point x="485" y="680"/>
      <point x="443" y="695" type="curve"/>
      <point x="352" y="497"/>
      <point x="289" y="403"/>
      <point x="130" y="265" type="curve"/>
    </contour>
    <contour>
      <point x="494" y="-100" type="curve"/>
      <point x="544" y="-78"/>
      <point x="576" y="-50"/>
      <point x="602" y="-13" type="curve"/>
      <point x="480" y="175"/>
      <point x="408" y="252"/>
      <point x="273" y="364" type="curve"/>
      <point x="201" y="282" type="line"/>
      <point x="339" y="151"/>
      <point x="410" y="56"/>
    </contour>
  </outline>
</glyph>
<glyph name="M" format="1">
  <advance width="780"/>
  <unicode hex="004D"/>
  <outline>
    <contour>
      <point x="713" y="728" type="curve"/>
      <point x="679" y="744"/>
      <point x="642" y="754"/>
      <point x="606" y="760" type="curve"/>
      <point x="514" y="615"/>
      <point x="438" y="462"/>
      <point x="382" y="290" type="curve"/>
      <point x="426" y="295" type="line"/>
      <point x="373" y="473"/>
      <point x="281" y="636"/>
      <point x="191" y="760" type="curve"/>
      <point x="149" y="753"/>
      <point x="103" y="733"/>
      <point x="67" y="710" type="curve"/>
      <point x="198" y="545"/>
      <point x="284" y="378"/>
      <point x="354" y="186" type="curve"/>
      <point x="379" y="182"/>
      <point x="411" y="183"/>
      <point x="435" y="191" type="curve"/>
      <point x="507" y="402"/>
      <point x="595" y="563"/>
    </contour>
    <contour>
      <point x="180" y="486" type="curve" smooth="yes"/>
      <point x="180" y="553"/>
      <point x="181" y="609"/>
      <point x="196" y="702" type="curve"/>
      <point x="67" y="710" type="line"/>
      <point x="62" y="492"/>
      <point x="79" y="195"/>
      <point x="110" y="-4" type="curve"/>
      <point x="150" y="-4"/>
      <point x="203" y="1"/>
      <point x="229" y="10" type="curve"/>
      <point x="197" y="163"/>
      <point x="180" y="334"/>
    </contour>
    <contour>
      <point x="718" y="-31" type="curve"/>
      <point x="722" y="188"/>
      <point x="724" y="502"/>
      <point x="713" y="728" type="curve"/>
      <point x="606" y="714" type="line"/>
      <point x="609" y="438"/>
      <point x="603" y="175"/>
      <point x="586" y="-54" type="curve"/>
      <point x="644" y="-54"/>
      <point x="681" y="-45"/>
    </contour>
  </outline>
</glyph>
<glyph name="O" format="1">
  <advance width="620"/>
  <unicode hex="004F"/>
  <outline>
    <contour>
      <point x="580" y="410" type="curve" smooth="yes"/>
      <point x="580" y="619"/>
      <point x="495" y="733"/>
      <point x="343" y="733" type="curve" smooth="yes"/>
      <point x="157" y="733"/>
      <point x="36" y="561"/>
      <point x="36" y="332" type="curve" smooth="yes"/>
      <point x="36" y="141"/>
      <point x="116" y="-20"/>
      <point x="276" y="-20" type="curve" smooth="yes"/>
      <point x="507" y="-20"/>
      <point x="580" y="244"/>
    </contour>
    <contour>
      <point x="445" y="377" type="curve" smooth="yes"/>
      <point x="445" y="236"/>
      <point x="411" y="68"/>
      <point x="298" y="68" type="curve" smooth="yes"/>
      <point x="201" y="68"/>
      <point x="169" y="223"/>
      <point x="169" y="351" type="curve" smooth="yes"/>
      <point x="169" y="526"/>
      <point x="228" y="644"/>
      <point x="318" y="644" type="curve" smooth="yes"/>
      <point x="404" y="644"/>
      <point x="445" y="569"/>
    </contour>
  </outline>
</glyph>
<glyph name="P" format="1">
  <advance width="585"/>
  <unicode hex="0050"/>
  <outline>
    <contour>
      <point x="206" y="-68" type="curve"/>
      <point x="196" y="63"/>
      <point x="191" y="164"/>
      <point x="192" y="289" type="curve"/>
      <point x="192" y="418"/>
      <point x="197" y="546"/>
      <point x="212" y="692" type="curve"/>
      <point x="72" y="702" type="line"/>
      <point x="68" y="653"/>
      <point x="65" y="586"/>
      <point x="65" y="538" type="curve" smooth="yes"/>
      <point x="65" y="340"/>
      <point x="71" y="182"/>
      <point x="95" y="-61" type="curve"/>
      <point x="125" y="-67"/>
      <point x="174" y="-69"/>
    </contour>
    <contour>
      <point x="546" y="547" type="curve" smooth="yes"/>
      <point x="546" y="660"/>
      <point x="465" y="742"/>
      <point x="291" y="742" type="curve" smooth="yes"/>
      <point x="216" y="742"/>
      <point x="136" y="727"/>
      <point x="72" y="702" type="curve"/>
      <point x="75" y="681"/>
      <point x="95" y="638"/>
      <point x="109" y="616" type="curve"/>
      <point x="155" y="638"/>
      <point x="212" y="663"/>
      <point x="273" y="663" type="curve" smooth="yes"/>
      <point x="375" y="663"/>
      <point x="413" y="602"/>
      <point x="413" y="526" type="curve" smooth="yes"/>
      <point x="413" y="411"/>
      <point x="323" y="340"/>
      <point x="169" y="306" type="curve"/>
      <point x="183" y="220" type="line"/>
      <point x="414" y="286"/>
      <point x="546" y="398"/>
    </contour>
  </outline>
</glyph>
<glyph name="T" format="1">
  <advance width="586"/>
  <unicode hex="0054"/>
  <outline>
    <contour>
      <point x="557" y="681" type="curve"/>
      <point x="560" y="696"/>
      <point x="563" y="715"/>
      <point x="563" y="736" type="curve" smooth="yes"/>
      <point x="562" y="757"/>
      <point x="560" y="776"/>
      <point x="554" y="792" type="curve"/>
      <point x="350" y="791"/>
      <point x="210" y="776"/>
      <point x="18" y="740" type="curve"/>
      <point x="17" y="711"/>
      <point x="22" y="676"/>
      <point x="33" y="642" type="curve"/>
      <point x="235" y="668"/>
      <point x="360" y="680"/>
    </contour>
    <contour>
      <point x="377" y="38" type="curve"/>
      <point x="383" y="116"/>
      <point x="387" y="200"/>
      <point x="387" y="281" type="curve" smooth="yes"/>
      <point x="387" y="452"/>
      <point x="379" y="597"/>
      <point x="362" y="748" type="curve"/>
      <point x="313" y="748"/>
      <point x="254" y="742"/>
      <point x="216" y="734" type="curve"/>
      <point x="249" y="531"/>
      <point x="263" y="229"/>
      <point x="259" y="24" type="curve"/>
      <point x="309" y="24"/>
      <point x="347" y="30"/>
    </contour>
  </outline>
</glyph>
<glyph name="U" format="1">
  <advance width="571"/>
  <unicode hex="0055"/>
  <outline>
    <contour>
      <point x="524" y="387" type="curve" smooth="yes"/>
      <point x="524" y="507"/>
      <point x="502" y="619"/>
      <point x="481" y="708" type="curve"/>
      <point x="439" y="707"/>
      <point x="383" y="699"/>
      <point x="344" y="684" type="curve"/>
      <point x="366" y="597"/>
      <point x="389" y="477"/>
      <point x="389" y="333" type="curve" smooth="yes"/>
      <point x="389" y="154"/>
      <point x="354" y="9"/>
      <point x="274" y="9" type="curve" smooth="yes"/>
      <point x="213" y="9"/>
      <point x="184" y="103"/>
      <point x="184" y="299" type="curve" smooth="yes"/>
      <point x="184" y="405"/>
      <point x="199" y="519"/>
      <point x="222" y="625" type="curve"/>
      <point x="211" y="630"/>
      <point x="193" y="634"/>
      <point x="167" y="634" type="curve" smooth="yes"/>
      <point x="143" y="634"/>
      <point x="115" y="630"/>
      <point x="99" y="626" type="curve"/>
      <point x="77" y="570"/>
      <point x="46" y="417"/>
      <point x="46" y="269" type="curve" smooth="yes"/>
      <point x="46" y="48"/>
      <point x="109" y="-80"/>
      <point x="253" y="-80" type="curve" smooth="yes"/>
      <point x="453" y="-80"/>
      <point x="524" y="113"/>
    </contour>
  </outline>
</glyph>
<glyph name="V" format="1">
  <advance width="585"/>
  <unicode hex="0056"/>
  <outline>
    <contour>
      <point x="322" y="-83" type="curve"/>
      <point x="449" y="184"/>
      <point x="527" y="428"/>
      <point x="565" y="740" type="curve"/>
      <point x="526" y="755"/>
      <point x="487" y="763"/>
      <point x="446" y="764" type="curve"/>
      <point x="418" y="496"/>
      <point x="371" y="273"/>
      <point x="283" y="48" type="curve"/>
      <point x="217" y="227"/>
      <point x="173" y="439"/>
      <point x="149" y="636" type="curve"/>
      <point x="98" y="634"/>
      <point x="53" y="624"/>
      <point x="13" y="606" type="curve"/>
      <point x="55" y="353"/>
      <point x="124" y="119"/>
      <point x="214" y="-96" type="curve"/>
      <point x="254" y="-96"/>
      <point x="293" y="-93"/>
    </contour>
  </outline>
</glyph>
<glyph name="Y" format="1">
  <advance width="534"/>
  <unicode hex="0059"/>
  <outline>
    <contour>
      <point x="299" y="276" type="line"/>
      <point x="220" y="413"/>
      <point x="169" y="545"/>
      <point x="138" y="732" type="curve"/>
      <point x="86" y="729"/>
      <point x="45" y="716"/>
      <point x="6" y="691" type="curve"/>
      <point x="53" y="492"/>
      <point x="118" y="327"/>
      <point x="238" y="175" type="curve"/>
    </contour>
    <contour>
      <point x="195" y="-91" type="curve"/>
      <point x="361" y="149"/>
      <point x="441" y="398"/>
      <point x="512" y="675" type="curve"/>
      <point x="473" y="698"/>
      <point x="431" y="713"/>
      <point x="381" y="721" type="curve"/>
      <point x="330" y="418"/>
      <point x="253" y="194"/>
      <point x="94" y="-46" type="curve"/>
      <point x="119" y="-65"/>
      <point x="162" y="-83"/>
    </contour>
  </outline>
</glyph>
<glyph name="Z" format="1">
  <advance width="587"/>
  <unicode hex="005A"/>
  <outline>
    <contour>
      <point x="511" y="-35" type="curve"/>
      <point x="527" y="2"/>
      <point x="534" y="45"/>
      <point x="535" y="91" type="curve"/>
      <point x="412" y="80"/>
      <point x="286" y="78"/>
      <point x="145" y="85" type="curve"/>
      <point x="319" y="268"/>
      <point x="452" y="423"/>
      <point x="550" y="569" type="curve"/>
      <point x="559" y="591"/>
      <point x="564" y="638"/>
      <point x="567" y="662" type="curve"/>
      <point x="415" y="684"/>
      <point x="263" y="709"/>
      <point x="102" y="740" type="curve"/>
      <point x="81" y="704"/>
      <point x="73" y="669"/>
      <point x="73" y="625" type="curve"/>
      <point x="181" y="608"/>
      <point x="303" y="592"/>
      <point x="451" y="584" type="curve"/>
      <point x="429" y="613" type="line"/>
      <point x="345" y="470"/>
      <point x="229" y="315"/>
      <point x="28" y="108" type="curve"/>
      <point x="20" y="80"/>
      <point x="17" y="39"/>
      <point x="18" y="6" type="curve"/>
      <point x="149" y="-15"/>
      <point x="343" y="-34"/>
    </contour>
  </outline>
</glyph>
<glyph name="bracketleft" format="1">
  <advance width="388"/>
  <unicode hex="005B"/>
  <outline>
    <contour>
      <point x="375" y="-128" type="curve"/>
      <point x="375" y="-101"/>
      <point x="370" y="-60"/>
      <point x="364" y="-40" type="curve"/>
      <point x="319" y="-48"/>
      <point x="255" y="-56"/>
      <point x="211" y="-56" type="curve"/>
      <point x="171" y="272"/>
      <point x="165" y="513"/>
      <point x="183" y="752" type="curve"/>
      <point x="62" y="754" type="line"/>
      <point x="63" y="471"/>
      <point x="87" y="125"/>
      <point x="128" y="-142" type="curve"/>
      <point x="216" y="-143"/>
      <point x="300" y="-138"/>
    </contour>
    <contour>
      <point x="325" y="791" type="curve"/>
      <point x="231" y="786"/>
      <point x="151" y="774"/>
      <point x="62" y="754" type="curve"/>
      <point x="101" y="687" type="line"/>
      <point x="169" y="699"/>
      <point x="247" y="703"/>
      <point x="320" y="705" type="curve"/>
      <point x="324" y="729"/>
      <point x="325" y="760"/>
    </contour>
  </outline>
</glyph>
<glyph name="asciicircum" format="1">
  <advance width="438"/>
  <unicode hex="005E"/>
  <outline>
    <contour>
      <point x="175" y="484" type="line"/>
      <point x="243" y="392"/>
      <point x="299" y="291"/>
      <point x="352" y="168" type="curve"/>
      <point x="380" y="174"/>
      <point x="398" y="181"/>
      <point x="425" y="193" type="curve"/>
      <point x="381" y="307"/>
      <point x="310" y="441"/>
      <point x="244" y="528" type="curve"/>
      <point x="194" y="530" type="line"/>
      <point x="129" y="447"/>
      <point x="56" y="310"/>
      <point x="13" y="195" type="curve"/>
      <point x="37" y="182"/>
      <point x="58" y="175"/>
      <point x="86" y="170" type="curve"/>
      <point x="139" y="293"/>
      <point x="195" y="399"/>
      <point x="263" y="485" type="curve"/>
    </contour>
  </outline>
</glyph>
<glyph name="b" format="1">
  <advance width="498"/>
  <unicode hex="0062"/>
  <outline>
    <contour>
      <point x="65" y="4" type="curve"/>
      <point x="104" y="-3"/>
      <point x="140" y="-15"/>
      <point x="180" y="-19" type="curve"/>
      <point x="175" y="31"/>
      <point x="176" y="79"/>
      <point x="176" y="157" type="curve" smooth="yes"/>
      <point x="176" y="351"/>
      <point x="191" y="558"/>
      <point x="218" y="705" type="curve"/>
      <point x="199" y="709"/>
      <point x="186" y="711"/>
      <point x="165" y="711" type="curve" smooth="yes"/>
      <point x="129" y="711"/>
      <point x="91" y="706"/>
      <point x="69" y="695" type="curve"/>
      <point x="59" y="612"/>
      <point x="55" y="481"/>
      <point x="55" y="359" type="curve" smooth="yes"/>
      <point x="55" y="271"/>
      <point x="57" y="117"/>
    </contour>
    <contour>
      <point x="161" y="74" type="curve"/>
      <point x="65" y="4" type="line"/>
      <point x="99" y="-21"/>
      <point x="144" y="-45"/>
      <point x="215" y="-45" type="curve" smooth="yes"/>
      <point x="356" y="-45"/>
      <point x="462" y="87"/>
      <point x="462" y="287" type="curve" smooth="yes"/>
      <point x="462" y="431"/>
      <point x="409" y="508"/>
      <point x="308" y="508" type="curve" smooth="yes"/>
      <point x="207" y="508"/>
      <point x="161" y="428"/>
      <point x="127" y="317" type="curve"/>
      <point x="167" y="282" type="line"/>
      <point x="189" y="382"/>
      <point x="229" y="424"/>
      <point x="266" y="424" type="curve" smooth="yes"/>
      <point x="312" y="424"/>
      <point x="333" y="380"/>
      <point x="333" y="303" type="curve" smooth="yes"/>
      <point x="333" y="161"/>
      <point x="303" y="42"/>
      <point x="223" y="42" type="curve" smooth="yes"/>
      <point x="198" y="42"/>
      <point x="176" y="55"/>
    </contour>
  </outline>
</glyph>
<glyph name="c" format="1">
  <advance width="464"/>
  <unicode hex="0063"/>
  <outline>
    <contour>
      <point x="322" y="348" type="curve"/>
      <point x="368" y="348"/>
      <point x="406" y="354"/>
      <point x="438" y="370" type="curve"/>
      <point x="438" y="467"/>
      <point x="385" y="542"/>
      <point x="269" y="542" type="curve" smooth="yes"/>
      <point x="119" y="542"/>
      <point x="26" y="375"/>
      <point x="26" y="200" type="curve" smooth="yes"/>
      <point x="26" y="80"/>
      <point x="80" y="-25"/>
      <point x="216" y="-25" type="curve" smooth="yes"/>
      <point x="342" y="-25"/>
      <point x="416" y="61"/>
      <point x="432" y="117" type="curve"/>
      <point x="415" y="140"/>
      <point x="388" y="158"/>
      <point x="361" y="164" type="curve"/>
      <point x="335" y="110"/>
      <point x="292" y="52"/>
      <point x="239" y="52" type="curve" smooth="yes"/>
      <point x="178" y="52"/>
      <point x="154" y="123"/>
      <point x="154" y="206" type="curve" smooth="yes"/>
      <point x="154" y="336"/>
      <point x="201" y="471"/>
      <point x="263" y="471" type="curve" smooth="yes"/>
      <point x="307" y="471"/>
      <point x="322" y="420"/>
    </contour>
  </outline>
</glyph>
<glyph name="d" format="1">
  <advance width="518"/>
  <unicode hex="0064"/>
  <outline>
    <contour>
      <point x="345" y="439" type="curve"/>
      <point x="355" y="512" type="line"/>
      <point x="343" y="519"/>
      <point x="303" y="528"/>
      <point x="272" y="528" type="curve" smooth="yes"/>
      <point x="124" y="528"/>
      <point x="32" y="408"/>
      <point x="32" y="226" type="curve" smooth="yes"/>
      <point x="32" y="85"/>
      <point x="86" y="-30"/>
      <point x="206" y="-30" type="curve" smooth="yes"/>
      <point x="290" y="-30"/>
      <point x="349" y="32"/>
      <point x="369" y="239" type="curve"/>
      <point x="332" y="277" type="line"/>
      <point x="322" y="108"/>
      <point x="277" y="61"/>
      <point x="238" y="61" type="curve" smooth="yes"/>
      <point x="189" y="61"/>
      <point x="157" y="121"/>
      <point x="157" y="242" type="curve" smooth="yes"/>
      <point x="157" y="392"/>
      <point x="218" y="451"/>
      <point x="282" y="451" type="curve" smooth="yes"/>
      <point x="312" y="451"/>
      <point x="329" y="446"/>
    </contour>
    <contour>
      <point x="313" y="477"/>
      <point x="326" y="128"/>
      <point x="350" y="-42" type="curve"/>
      <point x="382" y="-42"/>
      <point x="425" y="-35"/>
      <point x="447" y="-29" type="curve"/>
      <point x="445" y="19"/>
      <point x="444" y="55"/>
      <point x="444" y="113" type="curve" smooth="yes"/>
      <point x="444" y="306"/>
      <point x="445" y="593"/>
      <point x="459" y="721" type="curve"/>
      <point x="439" y="725"/>
      <point x="421" y="727"/>
      <point x="405" y="727" type="curve" smooth="yes"/>
      <point x="371" y="727"/>
      <point x="333" y="720"/>
      <point x="313" y="710" type="curve"/>
    </contour>
  </outline>
</glyph>
<glyph name="f" format="1">
  <advance width="419"/>
  <unicode hex="0066"/>
  <outline>
    <contour>
      <point x="225" y="-11"/>
      <point x="172" y="-21"/>
      <point x="127" y="-21" type="curve"/>
      <point x="114" y="38"/>
      <point x="88" y="236"/>
      <point x="88" y="396" type="curve" smooth="yes"/>
      <point x="88" y="627"/>
      <point x="156" y="727"/>
      <point x="269" y="727" type="curve" smooth="yes"/>
      <point x="360" y="727"/>
      <point x="401" y="663"/>
      <point x="401" y="594" type="curve" smooth="yes"/>
      <point x="401" y="575"/>
      <point x="397" y="552"/>
      <point x="390" y="538" type="curve"/>
      <point x="356" y="538"/>
      <point x="323" y="544"/>
      <point x="295" y="553" type="curve"/>
      <point x="300" y="566"/>
      <point x="303" y="582"/>
      <point x="303" y="598" type="curve" smooth="yes"/>
      <point x="303" y="631"/>
      <point x="290" y="649"/>
      <point x="267" y="649" type="curve" smooth="yes"/>
      <point x="225" y="649"/>
      <point x="205" y="571"/>
      <point x="205" y="448" type="curve" smooth="yes"/>
      <point x="205" y="278"/>
      <point x="239" y="84"/>
      <point x="260" y="1" type="curve"/>
    </contour>
    <contour>
      <point x="89" y="458"/>
      <point x="190" y="452"/>
      <point x="279" y="452" type="curve" smooth="yes"/>
      <point x="318" y="452"/>
      <point x="350" y="454"/>
      <point x="372" y="458" type="curve"/>
      <point x="372" y="433"/>
      <point x="368" y="397"/>
      <point x="364" y="377" type="curve"/>
      <point x="348" y="372"/>
      <point x="325" y="370"/>
      <point x="284" y="370" type="curve" smooth="yes"/>
      <point x="163" y="370"/>
      <point x="58" y="388"/>
      <point x="22" y="403" type="curve"/>
      <point x="22" y="419"/>
      <point x="28" y="458"/>
      <point x="35" y="466" type="curve"/>
    </contour>
  </outline>
</glyph>
<glyph name="g" format="1">
  <advance width="503"/>
  <unicode hex="0067"/>
  <outline>
    <contour>
      <point x="308" y="437" type="curve"/>
      <point x="415" y="500" type="line"/>
      <point x="373" y="516"/>
      <point x="318" y="527"/>
      <point x="275" y="527" type="curve" smooth="yes"/>
      <point x="124" y="527"/>
      <point x="37" y="427"/>
      <point x="37" y="250" type="curve" smooth="yes"/>
      <point x="37" y="102"/>
      <point x="108" y="4"/>
      <point x="221" y="4" type="curve" smooth="yes"/>
      <point x="294" y="4"/>
      <point x="339" y="62"/>
      <point x="371" y="185" type="curve"/>
      <point x="336" y="220" type="line"/>
      <point x="322" y="143"/>
      <point x="296" y="88"/>
      <point x="254" y="88" type="curve" smooth="yes"/>
      <point x="208" y="88"/>
      <point x="165" y="144"/>
      <point x="165" y="269" type="curve" smooth="yes"/>
      <point x="165" y="389"/>
      <point x="197" y="445"/>
      <point x="260" y="445" type="curve" smooth="yes"/>
      <point x="276" y="445"/>
      <point x="295" y="442"/>
    </contour>
    <contour>
      <point x="368" y="500"/>
      <point x="314" y="495"/>
      <point x="282" y="478" type="curve"/>
      <point x="302" y="412"/>
      <point x="323" y="287"/>
      <point x="323" y="150" type="curve" smooth="yes"/>
      <point x="323" y="-77"/>
      <point x="282" y="-168"/>
      <point x="227" y="-168" type="curve" smooth="yes"/>
      <point x="185" y="-168"/>
      <point x="163" y="-130"/>
      <point x="150" y="-43" type="curve"/>
      <point x="112" y="-49"/>
      <point x="72" y="-65"/>
      <point x="42" y="-87" type="curve"/>
      <point x="48" y="-142"/>
      <point x="82" y="-247"/>
      <point x="217" y="-247" type="curve" smooth="yes"/>
      <point x="327" y="-247"/>
      <point x="451" y="-163"/>
      <point x="451" y="169" type="curve" smooth="yes"/>
      <point x="451" y="287"/>
      <point x="433" y="430"/>
      <point x="415" y="500" type="curve"/>
    </contour>
  </outline>
</glyph>
<glyph name="h" format="1">
  <advance width="521"/>
  <unicode hex="0068"/>
  <outline>
    <contour>
      <point x="470" y="333" type="curve" smooth="yes"/>
      <point x="470" y="481"/>
      <point x="419" y="533"/>
      <point x="328" y="533" type="curve" smooth="yes"/>
      <point x="242" y="533"/>
      <point x="180" y="457"/>
      <point x="144" y="363" type="curve"/>
      <point x="159" y="274" type="line"/>
      <point x="195" y="394"/>
      <point x="251" y="444"/>
      <point x="290" y="444" type="curve" smooth="yes"/>
      <point x="331" y="444"/>
      <point x="344" y="415"/>
      <point x="344" y="332" type="curve" smooth="yes"/>
      <point x="344" y="217"/>
      <point x="316" y="91"/>
      <point x="283" y="-6" type="curve"/>
      <point x="317" y="-20"/>
      <point x="355" y="-30"/>
      <point x="394" y="-32" type="curve"/>
      <point x="415" y="17"/>
      <point x="470" y="195"/>
    </contour>
    <contour>
      <point x="72" y="27" type="curve"/>
      <point x="110" y="27"/>
      <point x="163" y="32"/>
      <point x="186" y="40" type="curve"/>
      <point x="183" y="79"/>
      <point x="176" y="173"/>
      <point x="176" y="239" type="curve" smooth="yes"/>
      <point x="176" y="432"/>
      <point x="194" y="616"/>
      <point x="221" y="747" type="curve"/>
      <point x="201" y="752"/>
      <point x="187" y="755"/>
      <point x="166" y="755" type="curve" smooth="yes"/>
      <point x="130" y="755"/>
      <point x="92" y="748"/>
      <point x="70" y="736" type="curve"/>
      <point x="62" y="668"/>
      <point x="56" y="536"/>
      <point x="56" y="437" type="curve" smooth="yes"/>
      <point x="56" y="306"/>
      <point x="62" y="158"/>
    </contour>
  </outline>
</glyph>
<glyph name="i" format="1">
  <advance width="246"/>
  <unicode hex="0069"/>
  <outline>
    <contour>
      <point x="210" y="652"/>
      <point x="226" y="704"/>
      <point x="238" y="733" type="curve"/>
      <point x="222" y="741"/>
      <point x="200" y="747"/>
      <point x="171" y="747" type="curve" smooth="yes"/>
      <point x="142" y="748"/>
      <point x="120" y="743"/>
      <point x="99" y="733" type="curve"/>
      <point x="90" y="712"/>
      <point x="87" y="683"/>
      <point x="87" y="662" type="curve" smooth="yes"/>
      <point x="87" y="642"/>
      <point x="90" y="624"/>
      <point x="94" y="607" type="curve"/>
      <point x="141" y="606"/>
      <point x="176" y="608"/>
      <point x="202" y="612" type="curve"/>
    </contour>
    <contour>
      <point x="188" y="520"/>
      <point x="172" y="522"/>
      <point x="157" y="522" type="curve" smooth="yes"/>
      <point x="124" y="522"/>
      <point x="93" y="515"/>
      <point x="68" y="501" type="curve"/>
      <point x="42" y="359"/>
      <point x="38" y="171"/>
      <point x="59" y="-8" type="curve"/>
      <point x="67" y="-10"/>
      <point x="77" y="-11"/>
      <point x="90" y="-11" type="curve" smooth="yes"/>
      <point x="115" y="-11"/>
      <point x="144" y="-6"/>
      <point x="163" y="3" type="curve"/>
      <point x="160" y="206"/>
      <point x="179" y="408"/>
      <point x="205" y="517" type="curve"/>
    </contour>
  </outline>
</glyph>
<glyph name="j" format="1">
  <advance width="267"/>
  <unicode hex="006A"/>
  <outline>
    <contour>
      <point x="149" y="616" type="curve"/>
      <point x="156" y="657"/>
      <point x="167" y="711"/>
      <point x="178" y="742" type="curve"/>
      <point x="160" y="750"/>
      <point x="137" y="755"/>
      <point x="105" y="755" type="curve" smooth="yes"/>
      <point x="76" y="755"/>
      <point x="52" y="750"/>
      <point x="31" y="739" type="curve"/>
      <point x="25" y="719"/>
      <point x="23" y="697"/>
      <point x="24" y="675" type="curve" smooth="yes"/>
      <point x="25" y="650"/>
      <point x="30" y="625"/>
      <point x="36" y="604" type="curve"/>
      <point x="87" y="604"/>
      <point x="123" y="607"/>
    </contour>
    <contour>
      <point x="-47" y="-195"/>
      <point x="-97" y="-164"/>
      <point x="-132" y="-106" type="curve"/>
      <point x="-115" y="-72"/>
      <point x="-94" y="-46"/>
      <point x="-68" y="-34" type="curve"/>
      <point x="-45" y="-77"/>
      <point x="-22" y="-95"/>
      <point x="6" y="-95" type="curve" smooth="yes"/>
      <point x="58" y="-95"/>
      <point x="86" y="-25"/>
      <point x="86" y="116" type="curve" smooth="yes"/>
      <point x="86" y="249"/>
      <point x="57" y="402"/>
      <point x="24" y="524" type="curve"/>
      <point x="65" y="536"/>
      <point x="124" y="542"/>
      <point x="174" y="538" type="curve"/>
      <point x="195" y="435"/>
      <point x="211" y="324"/>
      <point x="211" y="214" type="curve" smooth="yes"/>
      <point x="211" y="-50"/>
      <point x="143" y="-195"/>
      <point x="17" y="-195" type="curve" smooth="yes"/>
    </contour>
  </outline>
</glyph>
<glyph name="k" format="1">
  <advance width="502"/>
  <unicode hex="006B"/>
  <outline>
    <contour>
      <point x="217" y="720" type="curve"/>
      <point x="185" y="733"/>
      <point x="115" y="742"/>
      <point x="78" y="740" type="curve"/>
      <point x="59" y="620"/>
      <point x="51" y="427"/>
      <point x="51" y="301" type="curve" smooth="yes"/>
      <point x="51" y="151"/>
      <point x="61" y="49"/>
      <point x="74" y="-52" type="curve"/>
      <point x="115" y="-52"/>
      <point x="152" y="-48"/>
      <point x="185" y="-38" type="curve"/>
      <point x="172" y="55"/>
      <point x="168" y="138"/>
      <point x="168" y="217" type="curve" smooth="yes"/>
      <point x="168" y="380"/>
      <point x="190" y="588"/>
    </contour>
    <contour>
      <point x="378" y="578" type="curve"/>
      <point x="285" y="443"/>
      <point x="217" y="357"/>
      <point x="93" y="261" type="curve"/>
      <point x="135" y="200" type="line"/>
      <point x="285" y="308"/>
      <point x="374" y="380"/>
      <point x="463" y="503" type="curve"/>
      <point x="445" y="530"/>
      <point x="411" y="561"/>
    </contour>
    <contour>
      <point x="211" y="341" type="curve"/>
      <point x="150" y="272" type="line"/>
      <point x="233" y="149"/>
      <point x="296" y="76"/>
      <point x="385" y="3" type="curve"/>
      <point x="429" y="19"/>
      <point x="457" y="54"/>
      <point x="482" y="86" type="curve"/>
      <point x="363" y="165"/>
      <point x="285" y="232"/>
    </contour>
  </outline>
</glyph>
<glyph name="r" format="1">
  <advance width="424"/>
  <unicode hex="0072"/>
  <outline>
    <contour>
      <point x="198" y="-2" type="curve"/>
      <point x="161" y="237"/>
      <point x="164" y="404"/>
      <point x="186" y="534" type="curve"/>
      <point x="165" y="542"/>
      <point x="141" y="546"/>
      <point x="115" y="546" type="curve" smooth="yes"/>
      <point x="91" y="546"/>
      <point x="66" y="544"/>
      <point x="45" y="536" type="curve"/>
      <point x="34" y="367"/>
      <point x="49" y="162"/>
      <point x="83" y="-4" type="curve"/>
      <point x="94" y="-8"/>
      <point x="105" y="-10"/>
      <point x="123" y="-11" type="curve" smooth="yes"/>
      <point x="155" y="-12"/>
      <point x="180" y="-8"/>
    </contour>
    <contour>
      <point x="405" y="384" type="curve"/>
      <point x="407" y="401"/>
      <point x="407" y="417"/>
      <point x="407" y="431" type="curve" smooth="yes"/>
      <point x="407" y="530"/>
      <point x="368" y="573"/>
      <point x="311" y="573" type="curve" smooth="yes"/>
      <point x="238" y="573"/>
      <point x="158" y="464"/>
      <point x="145" y="282" type="curve"/>
      <point x="169" y="207" type="line"/>
      <point x="189" y="385"/>
      <point x="232" y="478"/>
      <point x="269" y="478" type="curve" smooth="yes"/>
      <point x="288" y="478"/>
      <point x="297" y="457"/>
      <point x="297" y="419" type="curve" smooth="yes"/>
      <point x="297" y="406"/>
      <point x="296" y="391"/>
      <point x="294" y="374" type="curve"/>
      <point x="333" y="372"/>
      <point x="376" y="374"/>
    </contour>
  </outline>
</glyph>
<glyph name="x" format="1">
  <advance width="512"/>
  <unicode hex="0078"/>
  <outline>
    <contour>
      <point x="36" y="483" type="curve"/>
      <point x="168" y="332"/>
      <point x="281" y="155"/>
      <point x="383" y="-39" type="curve"/>
      <point x="414" y="-25"/>
      <point x="452" y="-2"/>
      <point x="475" y="19" type="curve"/>
      <point x="380" y="218"/>
      <point x="284" y="382"/>
      <point x="160" y="556" type="curve"/>
      <point x="116" y="540"/>
      <point x="71" y="511"/>
    </contour>
    <contour>
      <point x="244" y="306" type="curve"/>
      <point x="227" y="300" type="line"/>
      <point x="152" y="210"/>
      <point x="71" y="125"/>
      <point x="-11" y="47" type="curve"/>
      <point x="2" y="24"/>
      <point x="22" y="-2"/>
      <point x="44" y="-18" type="curve"/>
      <point x="132" y="60"/>
      <point x="206" y="135"/>
      <point x="279" y="216" type="curve"/>
      <point x="296" y="220" type="line"/>
      <point x="366" y="295"/>
      <point x="434" y="374"/>
      <point x="504" y="464" type="curve"/>
      <point x="483" y="499"/>
      <point x="457" y="529"/>
      <point x="423" y="552" type="curve"/>
      <point x="364" y="463"/>
      <point x="309" y="383"/>
    </contour>
  </outline>
</glyph>
<glyph name="y" format="1">
  <advance width="502"/>
  <unicode hex="0079"/>
  <outline>
    <contour>
      <point x="367" y="515"/>
      <point x="313" y="510"/>
      <point x="280" y="493" type="curve"/>
      <point x="301" y="427"/>
      <point x="321" y="302"/>
      <point x="321" y="165" type="curve" smooth="yes"/>
      <point x="321" y="-62"/>
      <point x="284" y="-153"/>
      <point x="231" y="-153" type="curve" smooth="yes"/>
      <point x="191" y="-153"/>
      <point x="172" y="-115"/>
      <point x="159" y="-28" type="curve"/>
      <point x="120" y="-34"/>
      <point x="80" y="-50"/>
      <point x="50" y="-72" type="curve"/>
      <point x="56" y="-127"/>
      <point x="89" y="-232"/>
      <point x="221" y="-232" type="curve" smooth="yes"/>
      <point x="328" y="-232"/>
      <point x="449" y="-148"/>
      <point x="449" y="184" type="curve" smooth="yes"/>
      <point x="449" y="302"/>
      <point x="432" y="445"/>
      <point x="414" y="515" type="curve"/>
    </contour>
    <contour>
      <point x="52" y="433"/>
      <point x="35" y="362"/>
      <point x="35" y="253" type="curve" smooth="yes"/>
      <point x="35" y="108"/>
      <point x="106" y="17"/>
      <point x="196" y="17" type="curve" smooth="yes"/>
      <point x="265" y="17"/>
      <point x="319" y="65"/>
      <point x="358" y="177" type="curve"/>
      <point x="337" y="255" type="line"/>
      <point x="312" y="159"/>
      <point x="280" y="113"/>
      <point x="237" y="113" type="curve" smooth="yes"/>
      <point x="187" y="113"/>
      <point x="164" y="183"/>
      <point x="164" y="259" type="curve" smooth="yes"/>
      <point x="164" y="345"/>
      <point x="174" y="408"/>
      <point x="204" y="519" type="curve"/>
      <point x="159" y="529"/>
      <point x="120" y="534"/>
      <point x="82" y="534" type="curve"/>
    </contour>
  </outline>
</glyph>
<glyph name="braceright" format="1">
  <advance width="321"/>
  <unicode hex="007D"/>
  <outline>
    <contour>
      <point x="193" y="314" type="curve"/>
      <point x="195" y="332" type="line"/>
      <point x="123" y="330"/>
      <point x="70" y="281"/>
      <point x="69" y="215" type="curve" smooth="yes"/>
      <point x="68" y="114"/>
      <point x="155" y="71"/>
      <point x="154" y="-23" type="curve" smooth="yes"/>
      <point x="153" y="-65"/>
      <point x="131" y="-90"/>
      <point x="91" y="-90" type="curve" smooth="yes"/>
      <point x="75" y="-90"/>
      <point x="63" y="-87"/>
      <point x="49" y="-82" type="curve"/>
      <point x="41" y="-106"/>
      <point x="39" y="-134"/>
      <point x="44" y="-157" type="curve"/>
      <point x="62" y="-163"/>
      <point x="79" y="-165"/>
      <point x="103" y="-166" type="curve" smooth="yes"/>
      <point x="187" y="-167"/>
      <point x="255" y="-110"/>
      <point x="256" y="-27" type="curve" smooth="yes"/>
      <point x="256" y="27"/>
      <point x="239" y="64"/>
      <point x="204" y="115" type="curve" smooth="yes"/>
      <point x="175" y="161"/>
      <point x="161" y="186"/>
      <point x="161" y="216" type="curve" smooth="yes"/>
      <point x="162" y="251"/>
      <point x="184" y="276"/>
      <point x="222" y="275" type="curve" smooth="yes"/>
      <point x="241" y="275"/>
      <point x="254" y="272"/>
      <point x="274" y="268" type="curve"/>
      <point x="283" y="298"/>
      <point x="283" y="341"/>
      <point x="275" y="376" type="curve"/>
      <point x="257" y="372"/>
      <point x="244" y="371"/>
      <point x="229" y="371" type="curve" smooth="yes"/>
      <point x="187" y="372"/>
      <point x="163" y="396"/>
      <point x="163" y="432" type="curve" smooth="yes"/>
      <point x="164" y="462"/>
      <point x="182" y="492"/>
      <point x="213" y="535" type="curve" smooth="yes"/>
      <point x="249" y="584"/>
      <point x="273" y="620"/>
      <point x="274" y="681" type="curve" smooth="yes"/>
      <point x="275" y="771"/>
      <point x="212" y="821"/>
      <point x="122" y="822" type="curve" smooth="yes"/>
      <point x="97" y="822"/>
      <point x="81" y="819"/>
      <point x="63" y="813" type="curve"/>
      <point x="58" y="794"/>
      <point x="59" y="767"/>
      <point x="67" y="739" type="curve"/>
      <point x="80" y="744"/>
      <point x="90" y="746"/>
      <point x="106" y="746" type="curve" smooth="yes"/>
      <point x="146" y="745"/>
      <point x="172" y="721"/>
      <point x="172" y="672" type="curve" smooth="yes"/>
      <point x="171" y="572"/>
      <point x="74" y="537"/>
      <point x="73" y="435" type="curve" smooth="yes"/>
      <point x="72" y="365"/>
      <point x="124" y="319"/>
    </contour>
  </outline>
</glyph>
<glyph name="exclamdown" format="1">
  <advance width="261"/>
  <unicode hex="00A1"/>
  <outline>
    <contour>
      <point x="193" y="-152"/>
      <point x="194" y="-130"/>
      <point x="194" y="-112" type="curve" smooth="yes"/>
      <point x="194" y="18"/>
      <point x="191" y="144"/>
      <point x="176" y="320" type="curve"/>
      <point x="158" y="324"/>
      <point x="137" y="327"/>
      <point x="115" y="327" type="curve" smooth="yes"/>
      <point x="99" y="327"/>
      <point x="88" y="326"/>
      <point x="79" y="323" type="curve"/>
      <point x="83" y="170"/>
      <point x="74" y="-28"/>
      <point x="52" y="-182" type="curve"/>
      <point x="68" y="-187"/>
      <point x="85" y="-190"/>
      <point x="107" y="-190" type="curve" smooth="yes"/>
      <point x="139" y="-190"/>
      <point x="166" y="-183"/>
      <point x="192" y="-170" type="curve"/>
    </contour>
    <contour>
      <point x="182" y="473"/>
      <point x="182" y="509"/>
      <point x="180" y="551" type="curve"/>
      <point x="164" y="557"/>
      <point x="141" y="562"/>
      <point x="116" y="562" type="curve" smooth="yes"/>
      <point x="96" y="562"/>
      <point x="79" y="560"/>
      <point x="56" y="556" type="curve"/>
      <point x="60" y="515"/>
      <point x="61" y="483"/>
      <point x="64" y="441" type="curve"/>
      <point x="104" y="439"/>
      <point x="134" y="437"/>
      <point x="180" y="438" type="curve"/>
    </contour>
  </outline>
</glyph>
<glyph name="cent" format="1">
  <advance width="468"/>
  <unicode hex="00A2"/>
  <outline>
    <contour>
      <point x="328" y="420" type="curve"/>
      <point x="374" y="420"/>
      <point x="412" y="426"/>
      <point x="444" y="441" type="curve"/>
      <point x="444" y="543"/>
      <point x="390" y="613"/>
      <point x="278" y="613" type="curve" smooth="yes"/>
      <point x="125" y="613"/>
      <point x="32" y="445"/>
      <point x="32" y="272" type="curve" smooth="yes"/>
      <point x="32" y="152"/>
      <point x="86" y="46"/>
      <point x="222" y="46" type="curve" smooth="yes"/>
      <point x="349" y="46"/>
      <point x="425" y="135"/>
      <point x="440" y="189" type="curve"/>
      <point x="426" y="211"/>
      <point x="394" y="231"/>
      <point x="367" y="236" type="curve"/>
      <point x="340" y="181"/>
      <point x="298" y="124"/>
      <point x="245" y="124" type="curve" smooth="yes"/>
      <point x="184" y="124"/>
      <point x="160" y="194"/>
      <point x="160" y="278" type="curve" smooth="yes"/>
      <point x="160" y="407"/>
      <point x="207" y="542"/>
      <point x="269" y="542" type="curve" smooth="yes"/>
      <point x="313" y="542"/>
      <point x="328" y="492"/>
    </contour>
    <contour>
      <point x="392" y="524" type="line"/>
      <point x="408" y="577"/>
      <point x="430" y="621"/>
      <point x="456" y="667" type="curve"/>
      <point x="431" y="683"/>
      <point x="399" y="695"/>
      <point x="374" y="696" type="curve"/>
      <point x="353" y="659"/>
      <point x="337" y="609"/>
      <point x="325" y="565" type="curve"/>
    </contour>
    <contour>
      <point x="185" y="78" type="curve"/>
      <point x="115" y="120" type="line"/>
      <point x="99" y="64"/>
      <point x="78" y="21"/>
      <point x="50" y="-26" type="curve"/>
      <point x="74" y="-42"/>
      <point x="109" y="-53"/>
      <point x="135" y="-55" type="curve"/>
      <point x="156" y="-15"/>
      <point x="174" y="36"/>
    </contour>
  </outline>
</glyph>
<glyph name="yen" format="1">
  <advance width="528"/>
  <unicode hex="00A5"/>
  <outline>
    <contour>
      <point x="195" y="-49" type="curve"/>
      <point x="231" y="-49"/>
      <point x="275" y="-44"/>
      <point x="301" y="-37" type="curve"/>
      <point x="315" y="100"/>
      <point x="318" y="236"/>
      <point x="318" y="364" type="curve"/>
      <point x="193" y="347" type="line"/>
      <point x="200" y="212"/>
      <point x="201" y="92"/>
    </contour>
    <contour>
      <point x="477" y="203" type="curve" smooth="yes"/>
      <point x="478" y="214"/>
      <point x="477" y="226"/>
      <point x="476" y="238" type="curve"/>
      <point x="350" y="222"/>
      <point x="175" y="221"/>
      <point x="56" y="232" type="curve"/>
      <point x="51" y="213"/>
      <point x="49" y="177"/>
      <point x="49" y="148" type="curve"/>
      <point x="175" y="138"/>
      <point x="329" y="142"/>
      <point x="468" y="156" type="curve"/>
      <point x="473" y="170"/>
      <point x="477" y="187"/>
    </contour>
    <contour>
      <point x="304" y="292" type="line"/>
      <point x="361" y="293"/>
      <point x="418" y="298"/>
      <point x="476" y="306" type="curve"/>
      <point x="482" y="316"/>
      <point x="488" y="330"/>
      <point x="489" y="348" type="curve" smooth="yes"/>
      <point x="489" y="361"/>
      <point x="489" y="374"/>
      <point x="486" y="388" type="curve"/>
      <point x="431" y="380"/>
      <point x="371" y="375"/>
      <point x="310" y="373" type="curve"/>
    </contour>
    <contour>
      <point x="47" y="296" type="curve"/>
      <point x="97" y="293"/>
      <point x="147" y="292"/>
      <point x="199" y="293" type="curve"/>
      <point x="210" y="375" type="line"/>
      <point x="154" y="375"/>
      <point x="101" y="376"/>
      <point x="53" y="379" type="curve"/>
      <point x="48" y="360"/>
      <point x="46" y="327"/>
    </contour>
    <contour>
      <point x="206" y="248" type="curve"/>
      <point x="278" y="306" type="line"/>
      <point x="229" y="474"/>
      <point x="182" y="581"/>
      <point x="129" y="680" type="curve"/>
      <point x="111" y="677"/>
      <point x="95" y="672"/>
      <point x="78" y="666" type="curve" smooth="yes"/>
      <point x="50" y="655"/>
      <point x="31" y="638"/>
      <point x="20" y="622" type="curve"/>
      <point x="86" y="513"/>
      <point x="157" y="385"/>
    </contour>
    <contour>
      <point x="404" y="687" type="curve"/>
      <point x="359" y="542"/>
      <point x="313" y="437"/>
      <point x="228" y="301" type="curve"/>
      <point x="292" y="250" type="line"/>
      <point x="407" y="417"/>
      <point x="456" y="507"/>
      <point x="504" y="633" type="curve"/>
      <point x="473" y="663"/>
      <point x="441" y="681"/>
    </contour>
  </outline>
</glyph>
<glyph name="section" format="1">
  <advance width="418"/>
  <unicode hex="00A7"/>
  <outline>
    <contour>
      <point x="281" y="233" type="curve" smooth="yes"/>
      <point x="281" y="184"/>
      <point x="247" y="156"/>
      <point x="193" y="152" type="curve"/>
      <point x="209" y="98" type="line"/>
      <point x="309" y="109"/>
      <point x="384" y="168"/>
      <point x="384" y="255" type="curve" smooth="yes"/>
      <point x="384" y="339"/>
      <point x="328" y="382"/>
      <point x="265" y="421" type="curve" smooth="yes"/>
      <point x="196" y="465"/>
      <point x="168" y="500"/>
      <point x="168" y="546" type="curve" smooth="yes"/>
      <point x="168" y="590"/>
      <point x="191" y="615"/>
      <point x="229" y="615" type="curve" smooth="yes"/>
      <point x="274" y="615"/>
      <point x="297" y="582"/>
      <point x="307" y="514" type="curve"/>
      <point x="344" y="516"/>
      <point x="371" y="521"/>
      <point x="396" y="536" type="curve"/>
      <point x="378" y="628"/>
      <point x="327" y="681"/>
      <point x="226" y="681" type="curve" smooth="yes"/>
      <point x="125" y="681"/>
      <point x="57" y="613"/>
      <point x="57" y="528" type="curve" smooth="yes"/>
      <point x="57" y="445"/>
      <point x="107" y="396"/>
      <point x="177" y="352" type="curve" smooth="yes"/>
      <point x="246" y="308"/>
      <point x="281" y="279"/>
    </contour>
    <contour>
      <point x="138" y="262" type="curve" smooth="yes"/>
      <point x="138" y="311"/>
      <point x="171" y="339"/>
      <point x="226" y="343" type="curve"/>
      <point x="209" y="397" type="line"/>
      <point x="110" y="386"/>
      <point x="35" y="327"/>
      <point x="35" y="240" type="curve" smooth="yes"/>
      <point x="35" y="156"/>
      <point x="98" y="109"/>
      <point x="160" y="70" type="curve" smooth="yes"/>
      <point x="232" y="24"/>
      <point x="263" y="-9"/>
      <point x="263" y="-57" type="curve" smooth="yes"/>
      <point x="263" y="-98"/>
      <point x="239" y="-124"/>
      <point x="203" y="-124" type="curve" smooth="yes"/>
      <point x="159" y="-124"/>
      <point x="127" y="-88"/>
      <point x="112" y="-10" type="curve"/>
      <point x="81" y="-12"/>
      <point x="47" y="-25"/>
      <point x="27" y="-38" type="curve"/>
      <point x="53" y="-144"/>
      <point x="111" y="-190"/>
      <point x="203" y="-190" type="curve" smooth="yes"/>
      <point x="307" y="-190"/>
      <point x="374" y="-120"/>
      <point x="374" y="-39" type="curve" smooth="yes"/>
      <point x="374" y="44"/>
      <point x="321" y="94"/>
      <point x="249" y="139" type="curve" smooth="yes"/>
      <point x="179" y="183"/>
      <point x="138" y="216"/>
    </contour>
  </outline>
</glyph>
<glyph name="ordfeminine" format="1">
  <advance width="297"/>
  <unicode hex="00AA"/>
  <outline>
    <contour>
      <point x="240" y="402" type="curve"/>
      <point x="215" y="402"/>
      <point x="187" y="406"/>
      <point x="163" y="411" type="curve"/>
      <point x="175" y="485"/>
      <point x="180" y="529"/>
      <point x="180" y="583" type="curve" smooth="yes"/>
      <point x="180" y="643"/>
      <point x="175" y="679"/>
      <point x="148" y="679" type="curve" smooth="yes"/>
      <point x="128" y="679"/>
      <point x="110" y="654"/>
      <point x="109" y="612" type="curve"/>
      <point x="70" y="617"/>
      <point x="44" y="628"/>
      <point x="29" y="648" type="curve"/>
      <point x="49" y="697"/>
      <point x="91" y="731"/>
      <point x="157" y="731" type="curve" smooth="yes"/>
      <point x="252" y="731"/>
      <point x="275" y="674"/>
      <point x="275" y="618" type="curve" smooth="yes"/>
      <point x="275" y="562"/>
      <point x="255" y="463"/>
    </contour>
    <contour>
      <point x="191" y="543" type="line"/>
      <point x="129" y="544"/>
      <point x="108" y="527"/>
      <point x="108" y="501" type="curve" smooth="yes"/>
      <point x="108" y="481"/>
      <point x="120" y="470"/>
      <point x="140" y="470" type="curve" smooth="yes"/>
      <point x="160" y="470"/>
      <point x="174" y="477"/>
      <point x="188" y="490" type="curve"/>
      <point x="184" y="447" type="line"/>
      <point x="167" y="433"/>
      <point x="142" y="425"/>
      <point x="110" y="425" type="curve" smooth="yes"/>
      <point x="50" y="425"/>
      <point x="10" y="456"/>
      <point x="10" y="507" type="curve" smooth="yes"/>
      <point x="10" y="555"/>
      <point x="48" y="584"/>
      <point x="139" y="584" type="curve" smooth="yes"/>
      <point x="170" y="584"/>
      <point x="180" y="584"/>
      <point x="191" y="582" type="curve"/>
    </contour>
  </outline>
</glyph>
<glyph name="logicalnot" format="1">
  <advance width="420"/>
  <unicode hex="00AC"/>
  <outline>
    <contour>
      <point x="33" y="402" type="curve"/>
      <point x="29" y="374"/>
      <point x="27" y="351"/>
      <point x="27" y="321" type="curve"/>
      <point x="132" y="306"/>
      <point x="268" y="305"/>
      <point x="379" y="321" type="curve"/>
      <point x="390" y="401" type="line"/>
      <point x="254" y="388"/>
      <point x="144" y="388"/>
    </contour>
    <contour>
      <point x="301" y="184" type="curve"/>
      <point x="329" y="180"/>
      <point x="352" y="178"/>
      <point x="382" y="178" type="curve"/>
      <point x="391" y="244"/>
      <point x="396" y="325"/>
      <point x="390" y="401" type="curve"/>
      <point x="308" y="360" type="line"/>
      <point x="311" y="298"/>
      <point x="309" y="247"/>
    </contour>
  </outline>
</glyph>
<glyph name="registered" format="1">
  <advance width="800"/>
  <unicode hex="00AE"/>
  <outline>
    <contour>
      <point x="672" y="139"/>
      <point x="572" y="22"/>
      <point x="401" y="22" type="curve" smooth="yes"/>
      <point x="232" y="22"/>
      <point x="128" y="134"/>
      <point x="128" y="318" type="curve" smooth="yes"/>
      <point x="128" y="496"/>
      <point x="252" y="628"/>
      <point x="413" y="628" type="curve" smooth="yes"/>
      <point x="580" y="628"/>
      <point x="672" y="511"/>
      <point x="672" y="334" type="curve" smooth="yes"/>
    </contour>
    <contour>
      <point x="634" y="-53"/>
      <point x="765" y="102"/>
      <point x="765" y="332" type="curve" smooth="yes"/>
      <point x="765" y="528"/>
      <point x="656" y="703"/>
      <point x="425" y="703" type="curve" smooth="yes"/>
      <point x="197" y="703"/>
      <point x="35" y="537"/>
      <point x="35" y="309" type="curve" smooth="yes"/>
      <point x="35" y="86"/>
      <point x="180" y="-53"/>
      <point x="393" y="-53" type="curve" smooth="yes"/>
    </contour>
    <contour>
      <point x="357" y="123" type="curve"/>
      <point x="364" y="197"/>
      <point x="367" y="272"/>
      <point x="367" y="345" type="curve" smooth="yes"/>
      <point x="367" y="398"/>
      <point x="365" y="450"/>
      <point x="362" y="503" type="curve"/>
      <point x="335" y="510"/>
      <point x="290" y="513"/>
      <point x="255" y="507" type="curve"/>
      <point x="267" y="403"/>
      <point x="274" y="311"/>
      <point x="274" y="206" type="curve" smooth="yes"/>
      <point x="274" y="179"/>
      <point x="273" y="155"/>
      <point x="272" y="129" type="curve"/>
      <point x="297" y="124"/>
      <point x="331" y="122"/>
    </contour>
    <contour>
      <point x="351" y="272" type="line"/>
      <point x="468" y="302"/>
      <point x="548" y="359"/>
      <point x="548" y="437" type="curve" smooth="yes"/>
      <point x="548" y="502"/>
      <point x="495" y="552"/>
      <point x="399" y="552" type="curve" smooth="yes"/>
      <point x="344" y="552"/>
      <point x="291" y="533"/>
      <point x="255" y="507" type="curve"/>
      <point x="260" y="486"/>
      <point x="272" y="466"/>
      <point x="280" y="443" type="curve"/>
      <point x="311" y="472"/>
      <point x="351" y="497"/>
      <point x="390" y="497" type="curve" smooth="yes"/>
      <point x="428" y="497"/>
      <point x="449" y="470"/>
      <point x="449" y="428" type="curve" smooth="yes"/>
      <point x="449" y="372"/>
      <point x="416" y="337"/>
      <point x="346" y="326" type="curve"/>
    </contour>
    <contour>
      <point x="576" y="146" type="curve"/>
      <point x="538" y="223"/>
      <point x="497" y="289"/>
      <point x="443" y="341" type="curve"/>
      <point x="376" y="304" type="line"/>
      <point x="423" y="241"/>
      <point x="450" y="181"/>
      <point x="486" y="99" type="curve"/>
      <point x="524" y="110"/>
      <point x="555" y="126"/>
    </contour>
  </outline>
</glyph>
<glyph name="plusminus" format="1">
  <advance width="421"/>
  <unicode hex="00B1"/>
  <outline>
    <contour>
      <point x="28" y="155" type="curve"/>
      <point x="23" y="127"/>
      <point x="21" y="104"/>
      <point x="21" y="74" type="curve"/>
      <point x="126" y="59"/>
      <point x="263" y="58"/>
      <point x="374" y="74" type="curve"/>
      <point x="381" y="99"/>
      <point x="384" y="126"/>
      <point x="384" y="154" type="curve"/>
      <point x="248" y="141"/>
      <point x="138" y="141"/>
    </contour>
    <component base="plus" xOffset="-1" yOffset="27"/>
  </outline>
</glyph>
<glyph name="twosuperior" format="1">
  <advance width="326"/>
  <unicode hex="00B2"/>
  <outline>
    <contour>
      <point x="316" y="588" type="curve" smooth="yes"/>
      <point x="316" y="660"/>
      <point x="259" y="709"/>
      <point x="175" y="709" type="curve" smooth="yes"/>
      <point x="95" y="709"/>
      <point x="39" y="670"/>
      <point x="15" y="581" type="curve"/>
      <point x="43" y="568"/>
      <point x="75" y="563"/>
      <point x="112" y="563" type="curve"/>
      <point x="125" y="627"/>
      <point x="143" y="652"/>
      <point x="170" y="652" type="curve" smooth="yes"/>
      <point x="194" y="652"/>
      <point x="208" y="631"/>
      <point x="208" y="600" type="curve" smooth="yes"/>
      <point x="208" y="530"/>
      <point x="152" y="464"/>
      <point x="11" y="371" type="curve"/>
      <point x="4" y="353"/>
      <point x="3" y="339"/>
      <point x="3" y="318" type="curve"/>
      <point x="72" y="297"/>
      <point x="189" y="283"/>
      <point x="287" y="281" type="curve"/>
      <point x="298" y="305"/>
      <point x="303" y="334"/>
      <point x="304" y="365" type="curve"/>
      <point x="239" y="362"/>
      <point x="185" y="365"/>
      <point x="103" y="368" type="curve"/>
      <point x="107" y="349" type="line"/>
      <point x="249" y="427"/>
      <point x="316" y="512"/>
    </contour>
  </outline>
</glyph>
<glyph name="paragraph" format="1">
  <advance width="687"/>
  <unicode hex="00B6"/>
  <outline>
    <contour>
      <point x="586" y="-284" type="curve"/>
      <point x="615" y="25"/>
      <point x="625" y="424"/>
      <point x="619" y="702" type="curve"/>
      <point x="498" y="744"/>
      <point x="434" y="761"/>
      <point x="330" y="761" type="curve" smooth="yes"/>
      <point x="156" y="761"/>
      <point x="56" y="675"/>
      <point x="56" y="550" type="curve" smooth="yes"/>
      <point x="56" y="392"/>
      <point x="170" y="287"/>
      <point x="390" y="222" type="curve"/>
      <point x="390" y="95"/>
      <point x="375" y="-119"/>
      <point x="365" y="-291" type="curve"/>
      <point x="399" y="-292"/>
      <point x="425" y="-289"/>
      <point x="445" y="-284" type="curve"/>
      <point x="478" y="91"/>
      <point x="488" y="351"/>
      <point x="483" y="654" type="curve"/>
      <point x="499" y="651"/>
      <point x="516" y="647"/>
      <point x="532" y="641" type="curve"/>
      <point x="545" y="253"/>
      <point x="529" y="64"/>
      <point x="506" y="-294" type="curve"/>
      <point x="541" y="-294"/>
      <point x="568" y="-288"/>
    </contour>
  </outline>
</glyph>
<glyph name="guillemotright" format="1">
  <advance width="526"/>
  <unicode hex="00BB"/>
  <outline>
    <contour>
      <point x="96" y="47" type="curve"/>
      <point x="175" y="110"/>
      <point x="237" y="179"/>
      <point x="282" y="265" type="curve"/>
      <point x="206" y="299" type="line"/>
      <point x="162" y="233"/>
      <point x="107" y="176"/>
      <point x="19" y="117" type="curve"/>
      <point x="41" y="83"/>
      <point x="62" y="63"/>
    </contour>
    <contour>
      <point x="20" y="401" type="curve"/>
      <point x="82" y="326"/>
      <point x="141" y="271"/>
      <point x="227" y="222" type="curve"/>
      <point x="282" y="265" type="line"/>
      <point x="213" y="318"/>
      <point x="156" y="380"/>
      <point x="102" y="467" type="curve"/>
      <point x="70" y="450"/>
      <point x="37" y="426"/>
    </contour>
    <contour>
      <point x="331" y="47" type="curve"/>
      <point x="410" y="110"/>
      <point x="473" y="179"/>
      <point x="517" y="265" type="curve"/>
      <point x="441" y="299" type="line"/>
      <point x="397" y="233"/>
      <point x="342" y="176"/>
      <point x="255" y="117" type="curve"/>
      <point x="276" y="83"/>
      <point x="297" y="63"/>
    </contour>
    <contour>
      <point x="255" y="401" type="curve"/>
      <point x="317" y="326"/>
      <point x="376" y="271"/>
      <point x="462" y="222" type="curve"/>
      <point x="517" y="265" type="line"/>
      <point x="448" y="318"/>
      <point x="392" y="380"/>
      <point x="337" y="467" type="curve"/>
      <point x="305" y="450"/>
      <point x="272" y="426"/>
    </contour>
  </outline>
</glyph>
<glyph name="Eth" format="1">
  <advance width="599"/>
  <unicode hex="00D0"/>
  <outline>
    <contour>
      <point x="189" y="-10" type="curve"/>
      <point x="185" y="62"/>
      <point x="183" y="128"/>
      <point x="183" y="213" type="curve" smooth="yes"/>
      <point x="183" y="367"/>
      <point x="185" y="486"/>
      <point x="199" y="662" type="curve"/>
      <point x="169" y="670"/>
      <point x="98" y="674"/>
      <point x="59" y="668" type="curve"/>
      <point x="57" y="617"/>
      <point x="56" y="558"/>
      <point x="56" y="508" type="curve" smooth="yes"/>
      <point x="56" y="351"/>
      <point x="64" y="188"/>
      <point x="79" y="0" type="curve"/>
      <point x="105" y="-5"/>
      <point x="162" y="-10"/>
    </contour>
    <contour>
      <point x="567" y="443" type="curve" smooth="yes"/>
      <point x="567" y="611"/>
      <point x="474" y="717"/>
      <point x="262" y="717" type="curve" smooth="yes"/>
      <point x="192" y="717"/>
      <point x="127" y="700"/>
      <point x="59" y="668" type="curve"/>
      <point x="63" y="645"/>
      <point x="83" y="602"/>
      <point x="98" y="578" type="curve"/>
      <point x="147" y="609"/>
      <point x="201" y="634"/>
      <point x="254" y="634" type="curve" smooth="yes"/>
      <point x="374" y="634"/>
      <point x="434" y="559"/>
      <point x="434" y="443" type="curve" smooth="yes"/>
      <point x="434" y="270"/>
      <point x="339" y="127"/>
      <point x="126" y="64" type="curve"/>
      <point x="189" y="-10" type="line"/>
      <point x="416" y="60"/>
      <point x="567" y="252"/>
    </contour>
    <contour>
      <point x="-21" y="410" type="curve"/>
      <point x="-25" y="393"/>
      <point x="-25" y="362"/>
      <point x="-23" y="339" type="curve"/>
      <point x="76" y="330"/>
      <point x="190" y="330"/>
      <point x="304" y="349" type="curve"/>
      <point x="307" y="373"/>
      <point x="307" y="398"/>
      <point x="305" y="419" type="curve"/>
      <point x="195" y="404"/>
      <point x="96" y="402"/>
    </contour>
  </outline>
</glyph>
<glyph name="multiply" format="1">
  <advance width="421"/>
  <unicode hex="00D7"/>
  <outline>
    <contour>
      <point x="318" y="488" type="curve"/>
      <point x="230" y="396"/>
      <point x="142" y="303"/>
      <point x="54" y="220" type="curve"/>
      <point x="71" y="197"/>
      <point x="88" y="179"/>
      <point x="108" y="161" type="curve"/>
      <point x="199" y="245"/>
      <point x="294" y="342"/>
      <point x="369" y="424" type="curve"/>
      <point x="356" y="447"/>
      <point x="339" y="469"/>
    </contour>
    <contour>
      <point x="314" y="160" type="curve"/>
      <point x="336" y="177"/>
      <point x="354" y="195"/>
      <point x="372" y="216" type="curve"/>
      <point x="300" y="312"/>
      <point x="195" y="417"/>
      <point x="107" y="482" type="curve"/>
      <point x="87" y="463"/>
      <point x="70" y="446"/>
      <point x="52" y="424" type="curve"/>
      <point x="159" y="337"/>
      <point x="239" y="255"/>
    </contour>
  </outline>
</glyph>
<glyph name="Thorn" format="1">
  <advance width="577"/>
  <unicode hex="00DE"/>
  <outline>
    <contour>
      <point x="202" y="-68" type="curve"/>
      <point x="193" y="64"/>
      <point x="188" y="165"/>
      <point x="188" y="289" type="curve" smooth="yes"/>
      <point x="188" y="418"/>
      <point x="193" y="551"/>
      <point x="208" y="697" type="curve"/>
      <point x="168" y="709"/>
      <point x="117" y="713"/>
      <point x="68" y="707" type="curve"/>
      <point x="64" y="658"/>
      <point x="61" y="586"/>
      <point x="61" y="538" type="curve" smooth="yes"/>
      <point x="61" y="340"/>
      <point x="67" y="182"/>
      <point x="91" y="-61" type="curve"/>
      <point x="122" y="-67"/>
      <point x="167" y="-69"/>
    </contour>
    <contour>
      <point x="545" y="402" type="curve" smooth="yes"/>
      <point x="545" y="515"/>
      <point x="464" y="597"/>
      <point x="290" y="597" type="curve" smooth="yes"/>
      <point x="214" y="597"/>
      <point x="135" y="582"/>
      <point x="70" y="557" type="curve"/>
      <point x="108" y="471" type="line"/>
      <point x="152" y="495"/>
      <point x="211" y="518"/>
      <point x="272" y="518" type="curve" smooth="yes"/>
      <point x="374" y="518"/>
      <point x="412" y="457"/>
      <point x="412" y="381" type="curve" smooth="yes"/>
      <point x="412" y="266"/>
      <point x="321" y="195"/>
      <point x="167" y="161" type="curve"/>
      <point x="181" y="75" type="line"/>
      <point x="412" y="141"/>
      <point x="545" y="253"/>
    </contour>
  </outline>
</glyph>
<glyph name="ae" format="1">
  <advance width="763"/>
  <unicode hex="00E6"/>
  <outline>
    <contour>
      <point x="264" y="530" type="curve" smooth="yes"/>
      <point x="158" y="530"/>
      <point x="71" y="462"/>
      <point x="52" y="385" type="curve"/>
      <point x="68" y="349"/>
      <point x="105" y="327"/>
      <point x="162" y="324" type="curve"/>
      <point x="165" y="403"/>
      <point x="204" y="456"/>
      <point x="251" y="456" type="curve" smooth="yes"/>
      <point x="299" y="456"/>
      <point x="319" y="415"/>
      <point x="320" y="321" type="curve" smooth="yes"/>
      <point x="321" y="300"/>
      <point x="321" y="274"/>
      <point x="320" y="238" type="curve"/>
      <point x="407" y="262"/>
      <point x="414" y="253"/>
      <point x="421" y="265" type="curve"/>
      <point x="427" y="352" type="line"/>
      <point x="419" y="435"/>
      <point x="379" y="530"/>
    </contour>
    <contour>
      <point x="402" y="254" type="line"/>
      <point x="449" y="234"/>
      <point x="501" y="225"/>
      <point x="547" y="225" type="curve" smooth="yes"/>
      <point x="604" y="225"/>
      <point x="655" y="230"/>
      <point x="693" y="246" type="curve"/>
      <point x="706" y="281"/>
      <point x="717" y="333"/>
      <point x="717" y="381" type="curve" smooth="yes"/>
      <point x="717" y="466"/>
      <point x="660" y="527"/>
      <point x="571" y="527" type="curve" smooth="yes"/>
      <point x="425" y="527"/>
      <point x="316" y="352"/>
      <point x="316" y="200" type="curve" smooth="yes"/>
      <point x="316" y="74"/>
      <point x="386" y="-33"/>
      <point x="506" y="-33" type="curve" smooth="yes"/>
      <point x="630" y="-33"/>
      <point x="710" y="58"/>
      <point x="727" y="112" type="curve"/>
      <point x="704" y="136"/>
      <point x="666" y="156"/>
      <point x="633" y="162" type="curve"/>
      <point x="617" y="106"/>
      <point x="568" y="45"/>
      <point x="524" y="45" type="curve" smooth="yes"/>
      <point x="467" y="45"/>
      <point x="439" y="113"/>
      <point x="439" y="200" type="curve" smooth="yes"/>
      <point x="439" y="315"/>
      <point x="489" y="454"/>
      <point x="556" y="454" type="curve" smooth="yes"/>
      <point x="592" y="454"/>
      <point x="601" y="429"/>
      <point x="601" y="389" type="curve" smooth="yes"/>
      <point x="601" y="358"/>
      <point x="594" y="324"/>
      <point x="587" y="298" type="curve"/>
      <point x="580" y="296"/>
      <point x="560" y="294"/>
      <point x="548" y="294" type="curve" smooth="yes"/>
      <point x="515" y="294"/>
      <point x="457" y="301"/>
      <point x="405" y="329" type="curve"/>
    </contour>
    <contour>
      <point x="335" y="263" type="line"/>
      <point x="314" y="265"/>
      <point x="294" y="266"/>
      <point x="249" y="266" type="curve" smooth="yes"/>
      <point x="91" y="266"/>
      <point x="26" y="210"/>
      <point x="26" y="127" type="curve" smooth="yes"/>
      <point x="26" y="43"/>
      <point x="87" y="-12"/>
      <point x="186" y="-12" type="curve" smooth="yes"/>
      <point x="253" y="-12"/>
      <point x="314" y="10"/>
      <point x="373" y="78" type="curve"/>
      <point x="374" y="139" type="line"/>
      <point x="331" y="84"/>
      <point x="269" y="55"/>
      <point x="220" y="55" type="curve" smooth="yes"/>
      <point x="177" y="55"/>
      <point x="154" y="80"/>
      <point x="154" y="120" type="curve" smooth="yes"/>
      <point x="154" y="173"/>
      <point x="197" y="213"/>
      <point x="335" y="205" type="curve"/>
    </contour>
  </outline>
</glyph>
<glyph name="ccedilla" format="1">
  <advance width="464"/>
  <unicode hex="00E7"/>
  <outline>
    <contour>
      <point x="322" y="349" type="curve"/>
      <point x="368" y="349"/>
      <point x="406" y="355"/>
      <point x="438" y="371" type="curve"/>
      <point x="438" y="468"/>
      <point x="385" y="543"/>
      <point x="269" y="543" type="curve" smooth="yes"/>
      <point x="119" y="543"/>
      <point x="26" y="376"/>
      <point x="26" y="201" type="curve" smooth="yes"/>
      <point x="26" y="81"/>
      <point x="80" y="-24"/>
      <point x="216" y="-24" type="curve" smooth="yes"/>
      <point x="342" y="-24"/>
      <point x="416" y="62"/>
      <point x="432" y="118" type="curve"/>
      <point x="415" y="141"/>
      <point x="388" y="159"/>
      <point x="361" y="165" type="curve"/>
      <point x="335" y="111"/>
      <point x="292" y="53"/>
      <point x="239" y="53" type="curve" smooth="yes"/>
      <point x="178" y="53"/>
      <point x="154" y="124"/>
      <point x="154" y="207" type="curve" smooth="yes"/>
      <point x="154" y="337"/>
      <point x="201" y="472"/>
      <point x="263" y="472" type="curve" smooth="yes"/>
      <point x="307" y="472"/>
      <point x="322" y="421"/>
    </contour>
    <contour>
      <point x="219" y="-232" type="curve" smooth="yes"/>
      <point x="294" y="-232"/>
      <point x="342" y="-193"/>
      <point x="342" y="-133" type="curve" smooth="yes"/>
      <point x="342" y="-85"/>
      <point x="305" y="-53"/>
      <point x="253" y="-53" type="curve" smooth="yes"/>
      <point x="227" y="-53"/>
      <point x="207" y="-61"/>
      <point x="182" y="-74" type="curve"/>
      <point x="210" y="-91" type="line"/>
      <point x="230" y="-58"/>
      <point x="238" y="-30"/>
      <point x="241" y="-4" type="curve"/>
      <point x="189" y="7" type="line"/>
      <point x="187" y="-25"/>
      <point x="176" y="-60"/>
      <point x="159" y="-88" type="curve"/>
      <point x="164" y="-96"/>
      <point x="175" y="-106"/>
      <point x="184" y="-113" type="curve"/>
      <point x="196" y="-107"/>
      <point x="207" y="-104"/>
      <point x="218" y="-104" type="curve" smooth="yes"/>
      <point x="242" y="-104"/>
      <point x="257" y="-119"/>
      <point x="257" y="-140" type="curve" smooth="yes"/>
      <point x="257" y="-164"/>
      <point x="241" y="-179"/>
      <point x="217" y="-179" type="curve" smooth="yes"/>
      <point x="192" y="-179"/>
      <point x="172" y="-160"/>
      <point x="163" y="-132" type="curve"/>
      <point x="144" y="-140"/>
      <point x="137" y="-144"/>
      <point x="111" y="-160" type="curve"/>
      <point x="129" y="-209"/>
      <point x="169" y="-232"/>
    </contour>
  </outline>
</glyph>
<glyph name="aogonek" format="1">
  <advance width="492"/>
  <unicode hex="0105"/>
  <outline>
    <contour>
      <point x="384" y="-35" type="curve"/>
      <point x="352" y="-35"/>
      <point x="314" y="-30"/>
      <point x="283" y="-22" type="curve"/>
      <point x="312" y="126"/>
      <point x="321" y="196"/>
      <point x="321" y="310" type="curve" smooth="yes"/>
      <point x="321" y="420"/>
      <point x="303" y="473"/>
      <point x="251" y="473" type="curve" smooth="yes"/>
      <point x="204" y="473"/>
      <point x="165" y="421"/>
      <point x="162" y="342" type="curve"/>
      <point x="105" y="345"/>
      <point x="68" y="366"/>
      <point x="52" y="403" type="curve"/>
      <point x="69" y="475"/>
      <point x="150" y="548"/>
      <point x="264" y="548" type="curve" smooth="yes"/>
      <point x="410" y="548"/>
      <point x="445" y="447"/>
      <point x="445" y="348" type="curve" smooth="yes"/>
      <point x="445" y="248"/>
      <point x="412" y="73"/>
    </contour>
    <contour>
      <point x="335" y="222" type="line"/>
      <point x="193" y="230"/>
      <point x="154" y="190"/>
      <point x="154" y="140" type="curve" smooth="yes"/>
      <point x="154" y="98"/>
      <point x="182" y="73"/>
      <point x="225" y="73" type="curve" smooth="yes"/>
      <point x="265" y="73"/>
      <point x="298" y="88"/>
      <point x="327" y="116" type="curve"/>
      <point x="320" y="52" type="line"/>
      <point x="292" y="25"/>
      <point x="247" y="5"/>
      <point x="191" y="5" type="curve" smooth="yes"/>
      <point x="92" y="5"/>
      <point x="26" y="61"/>
      <point x="26" y="147" type="curve" smooth="yes"/>
      <point x="26" y="231"/>
      <point x="92" y="283"/>
      <point x="249" y="283" type="curve" smooth="yes"/>
      <point x="294" y="283"/>
      <point x="314" y="282"/>
      <point x="335" y="280" type="curve"/>
    </contour>
    <contour>
      <point x="329" y="-26" type="line"/>
      <point x="284" y="-62"/>
      <point x="264" y="-99"/>
      <point x="264" y="-134" type="curve" smooth="yes"/>
      <point x="264" y="-156"/>
      <point x="275" y="-170"/>
      <point x="295" y="-170" type="curve" smooth="yes"/>
      <point x="317" y="-170"/>
      <point x="335" y="-158"/>
      <point x="353" y="-128" type="curve"/>
      <point x="366" y="-139"/>
      <point x="376" y="-156"/>
      <point x="383" y="-175" type="curve"/>
      <point x="358" y="-211"/>
      <point x="323" y="-234"/>
      <point x="273" y="-234" type="curve" smooth="yes"/>
      <point x="218" y="-234"/>
      <point x="182" y="-204"/>
      <point x="182" y="-157" type="curve" smooth="yes"/>
      <point x="182" y="-100"/>
      <point x="221" y="-56"/>
      <point x="294" y="-12" type="curve"/>
    </contour>
  </outline>
</glyph>
<glyph name="eogonek" format="1">
  <advance width="480"/>
  <unicode hex="0119"/>
  <outline>
    <contour>
      <point x="366" y="13" type="curve" smooth="yes"/>
      <point x="327" y="-14"/>
      <point x="308" y="-54"/>
      <point x="308" y="-87" type="curve" smooth="yes"/>
      <point x="308" y="-110"/>
      <point x="321" y="-127"/>
      <point x="340" y="-127" type="curve" smooth="yes"/>
      <point x="362" y="-127"/>
      <point x="380" y="-115"/>
      <point x="397" y="-85" type="curve"/>
      <point x="411" y="-96"/>
      <point x="420" y="-113"/>
      <point x="428" y="-132" type="curve"/>
      <point x="402" y="-168"/>
      <point x="366" y="-189"/>
      <point x="319" y="-189" type="curve" smooth="yes"/>
      <point x="264" y="-189"/>
      <point x="226" y="-159"/>
      <point x="226" y="-110" type="curve" smooth="yes"/>
      <point x="226" y="-62"/>
      <point x="256" y="-25"/>
      <point x="315" y="15" type="curve"/>
      <point x="305" y="-19" type="line"/>
      <point x="281" y="-28"/>
      <point x="254" y="-33"/>
      <point x="223" y="-33" type="curve" smooth="yes"/>
      <point x="91" y="-33"/>
      <point x="30" y="71"/>
      <point x="30" y="197" type="curve" smooth="yes"/>
      <point x="30" y="359"/>
      <point x="141" y="527"/>
      <point x="283" y="527" type="curve" smooth="yes"/>
      <point x="380" y="527"/>
      <point x="434" y="466"/>
      <point x="434" y="381" type="curve" smooth="yes"/>
      <point x="434" y="333"/>
      <point x="423" y="281"/>
      <point x="410" y="246" type="curve"/>
      <point x="373" y="230"/>
      <point x="322" y="225"/>
      <point x="264" y="225" type="curve" smooth="yes"/>
      <point x="218" y="225"/>
      <point x="167" y="234"/>
      <point x="119" y="254" type="curve"/>
      <point x="123" y="329" type="line"/>
      <point x="175" y="301"/>
      <point x="232" y="294"/>
      <point x="266" y="294" type="curve" smooth="yes"/>
      <point x="278" y="294"/>
      <point x="298" y="296"/>
      <point x="305" y="298" type="curve"/>
      <point x="312" y="324"/>
      <point x="319" y="358"/>
      <point x="319" y="389" type="curve" smooth="yes"/>
      <point x="319" y="429"/>
      <point x="309" y="454"/>
      <point x="274" y="454" type="curve" smooth="yes"/>
      <point x="206" y="454"/>
      <point x="157" y="315"/>
      <point x="157" y="200" type="curve" smooth="yes"/>
      <point x="157" y="113"/>
      <point x="184" y="45"/>
      <point x="241" y="45" type="curve" smooth="yes"/>
      <point x="286" y="45"/>
      <point x="335" y="106"/>
      <point x="351" y="162" type="curve"/>
      <point x="384" y="156"/>
      <point x="422" y="136"/>
      <point x="445" y="112" type="curve"/>
      <point x="427" y="67"/>
      <point x="405" y="40"/>
    </contour>
  </outline>
</glyph>
<glyph name="dotlessi" format="1">
  <advance width="246"/>
  <unicode hex="0131"/>
  <outline>
    <contour>
      <point x="188" y="520"/>
      <point x="172" y="522"/>
      <point x="157" y="522" type="curve" smooth="yes"/>
      <point x="124" y="522"/>
      <point x="93" y="515"/>
      <point x="68" y="501" type="curve"/>
      <point x="43" y="366"/>
      <point x="39" y="142"/>
      <point x="59" y="-8" type="curve"/>
      <point x="67" y="-10"/>
      <point x="77" y="-11"/>
      <point x="90" y="-11" type="curve" smooth="yes"/>
      <point x="115" y="-11"/>
      <point x="144" y="-6"/>
      <point x="163" y="3" type="curve"/>
      <point x="160" y="206"/>
      <point x="179" y="408"/>
      <point x="205" y="517" type="curve"/>
    </contour>
  </outline>
</glyph>
<glyph name="OE" format="1">
  <advance width="913"/>
  <unicode hex="0152"/>
  <outline>
    <contour>
      <point x="559" y="408" type="curve" smooth="yes"/>
      <point x="558" y="607"/>
      <point x="479" y="729"/>
      <point x="331" y="729" type="curve" smooth="yes"/>
      <point x="147" y="729"/>
      <point x="39" y="558"/>
      <point x="39" y="329" type="curve" smooth="yes"/>
      <point x="39" y="137"/>
      <point x="120" y="-23"/>
      <point x="281" y="-23" type="curve" smooth="yes"/>
      <point x="495" y="-23"/>
      <point x="560" y="225"/>
    </contour>
    <contour>
      <point x="428" y="373" type="curve" smooth="yes"/>
      <point x="429" y="215"/>
      <point x="400" y="65"/>
      <point x="304" y="65" type="curve" smooth="yes"/>
      <point x="205" y="65"/>
      <point x="172" y="219"/>
      <point x="172" y="347" type="curve" smooth="yes"/>
      <point x="172" y="523"/>
      <point x="217" y="640"/>
      <point x="306" y="640" type="curve" smooth="yes"/>
      <point x="388" y="640"/>
      <point x="427" y="555"/>
    </contour>
    <contour>
      <point x="878" y="-2" type="curve"/>
      <point x="879" y="28"/>
      <point x="875" y="77"/>
      <point x="867" y="100" type="curve"/>
      <point x="787" y="83"/>
      <point x="668" y="70"/>
      <point x="592" y="68" type="curve"/>
      <point x="579" y="170"/>
      <point x="571" y="263"/>
      <point x="567" y="348" type="curve" smooth="yes"/>
      <point x="560" y="483"/>
      <point x="562" y="593"/>
      <point x="569" y="678" type="curve"/>
      <point x="418" y="685" type="line"/>
      <point x="421" y="486"/>
      <point x="451" y="193"/>
      <point x="486" y="-32" type="curve"/>
      <point x="613" y="-30"/>
      <point x="790" y="-17"/>
    </contour>
    <contour>
      <point x="809" y="331" type="curve"/>
      <point x="810" y="371"/>
      <point x="807" y="402"/>
      <point x="799" y="433" type="curve"/>
      <point x="701" y="428"/>
      <point x="622" y="413"/>
      <point x="533" y="392" type="curve"/>
      <point x="539" y="304" type="line"/>
      <point x="629" y="319"/>
      <point x="704" y="326"/>
    </contour>
    <contour>
      <point x="843" y="627" type="curve"/>
      <point x="849" y="656"/>
      <point x="854" y="693"/>
      <point x="854" y="733" type="curve"/>
      <point x="688" y="731"/>
      <point x="562" y="711"/>
      <point x="418" y="685" type="curve"/>
      <point x="443" y="593" type="line"/>
      <point x="570" y="615"/>
      <point x="701" y="626"/>
    </contour>
  </outline>
</glyph>
<glyph name="Uogonek" format="1">
  <advance width="571"/>
  <unicode hex="0172"/>
  <outline>
    <contour>
      <point x="353" y="-62" type="curve" smooth="yes"/>
      <point x="296" y="-92"/>
      <point x="265" y="-138"/>
      <point x="265" y="-177" type="curve" smooth="yes"/>
      <point x="265" y="-203"/>
      <point x="277" y="-218"/>
      <point x="296" y="-218" type="curve" smooth="yes"/>
      <point x="318" y="-218"/>
      <point x="336" y="-206"/>
      <point x="354" y="-176" type="curve"/>
      <point x="367" y="-187"/>
      <point x="377" y="-204"/>
      <point x="384" y="-223" type="curve"/>
      <point x="359" y="-259"/>
      <point x="322" y="-280"/>
      <point x="275" y="-280" type="curve" smooth="yes"/>
      <point x="221" y="-280"/>
      <point x="183" y="-251"/>
      <point x="183" y="-197" type="curve" smooth="yes"/>
      <point x="183" y="-148"/>
      <point x="217" y="-100"/>
      <point x="286" y="-56" type="curve"/>
      <point x="297" y="-76" type="line" smooth="yes"/>
      <point x="299" y="-81"/>
      <point x="268" y="-80"/>
      <point x="253" y="-80" type="curve" smooth="yes"/>
      <point x="109" y="-80"/>
      <point x="46" y="48"/>
      <point x="46" y="269" type="curve" smooth="yes"/>
      <point x="46" y="417"/>
      <point x="77" y="570"/>
      <point x="99" y="626" type="curve"/>
      <point x="115" y="630"/>
      <point x="143" y="634"/>
      <point x="167" y="634" type="curve" smooth="yes"/>
      <point x="193" y="634"/>
      <point x="211" y="630"/>
      <point x="222" y="625" type="curve"/>
      <point x="199" y="519"/>
      <point x="184" y="405"/>
      <point x="184" y="299" type="curve" smooth="yes"/>
      <point x="184" y="103"/>
      <point x="213" y="9"/>
      <point x="274" y="9" type="curve" smooth="yes"/>
      <point x="354" y="9"/>
      <point x="389" y="154"/>
      <point x="389" y="333" type="curve" smooth="yes"/>
      <point x="389" y="477"/>
      <point x="366" y="597"/>
      <point x="344" y="684" type="curve"/>
      <point x="383" y="699"/>
      <point x="439" y="707"/>
      <point x="481" y="708" type="curve"/>
      <point x="502" y="619"/>
      <point x="524" y="507"/>
      <point x="524" y="387" type="curve" smooth="yes"/>
      <point x="524" y="140"/>
      <point x="471" y="-2"/>
    </contour>
  </outline>
</glyph>
<glyph name="florin" format="1">
  <advance width="403"/>
  <unicode hex="0192"/>
  <outline>
    <contour>
      <point x="364" y="361" type="curve"/>
      <point x="348" y="356"/>
      <point x="321" y="354"/>
      <point x="281" y="354" type="curve" smooth="yes"/>
      <point x="165" y="354"/>
      <point x="59" y="369"/>
      <point x="8" y="386" type="curve"/>
      <point x="8" y="402"/>
      <point x="15" y="439"/>
      <point x="22" y="450" type="curve"/>
      <point x="80" y="441"/>
      <point x="177" y="435"/>
      <point x="275" y="435" type="curve" smooth="yes"/>
      <point x="314" y="435"/>
      <point x="346" y="437"/>
      <point x="372" y="442" type="curve"/>
      <point x="372" y="417"/>
      <point x="368" y="381"/>
    </contour>
    <contour>
      <point x="94" y="-155" type="curve" smooth="yes"/>
      <point x="7" y="-155"/>
      <point x="-32" y="-92"/>
      <point x="-32" y="-22" type="curve" smooth="yes"/>
      <point x="-32" y="-3"/>
      <point x="-28" y="19"/>
      <point x="-21" y="33" type="curve"/>
      <point x="12" y="33"/>
      <point x="45" y="27"/>
      <point x="73" y="18" type="curve"/>
      <point x="69" y="7"/>
      <point x="66" y="-8"/>
      <point x="66" y="-27" type="curve" smooth="yes"/>
      <point x="66" y="-59"/>
      <point x="80" y="-77"/>
      <point x="104" y="-77" type="curve" smooth="yes"/>
      <point x="140" y="-77"/>
      <point x="157" y="-38"/>
      <point x="157" y="39" type="curve" smooth="yes"/>
      <point x="157" y="217"/>
      <point x="89" y="323"/>
      <point x="86" y="474" type="curve" smooth="yes"/>
      <point x="82" y="641"/>
      <point x="161" y="724"/>
      <point x="265" y="726" type="curve" smooth="yes"/>
      <point x="356" y="727"/>
      <point x="400" y="665"/>
      <point x="401" y="595" type="curve" smooth="yes"/>
      <point x="401" y="576"/>
      <point x="397" y="553"/>
      <point x="390" y="539" type="curve"/>
      <point x="356" y="538"/>
      <point x="323" y="544"/>
      <point x="295" y="552" type="curve"/>
      <point x="299" y="563"/>
      <point x="302" y="579"/>
      <point x="302" y="598" type="curve" smooth="yes"/>
      <point x="302" y="629"/>
      <point x="285" y="648"/>
      <point x="260" y="648" type="curve" smooth="yes"/>
      <point x="222" y="647"/>
      <point x="204" y="600"/>
      <point x="205" y="512" type="curve" smooth="yes"/>
      <point x="207" y="328"/>
      <point x="285" y="220"/>
      <point x="257" y="33" type="curve" smooth="yes"/>
      <point x="243" y="-97"/>
      <point x="183" y="-155"/>
    </contour>
  </outline>
</glyph>
<glyph name="caron" format="1">
  <advance width="260"/>
  <unicode hex="02C7"/>
  <outline>
    <component base="circumflex" xScale="-1" yScale="-1" xOffset="255" yOffset="1317"/>
    <contour>
      <point x="138.0" y="560.0" type="move" name="_top"/>
    </contour>
  </outline>
</glyph>
<glyph name="dotaccent" format="1">
  <advance width="261"/>
  <unicode hex="02D9"/>
  <outline>
    <contour>
      <point x="187" y="655"/>
      <point x="203" y="707"/>
      <point x="215" y="735" type="curve"/>
      <point x="199" y="744"/>
      <point x="177" y="749"/>
      <point x="148" y="750" type="curve" smooth="yes"/>
      <point x="119" y="750"/>
      <point x="97" y="746"/>
      <point x="76" y="735" type="curve"/>
      <point x="67" y="714"/>
      <point x="64" y="685"/>
      <point x="64" y="664" type="curve" smooth="yes"/>
      <point x="64" y="644"/>
      <point x="67" y="626"/>
      <point x="71" y="610" type="curve"/>
      <point x="118" y="609"/>
      <point x="153" y="611"/>
      <point x="179" y="615" type="curve"/>
    </contour>
    <contour>
      <point x="130.0" y="560.0" type="move" name="_top"/>
    </contour>
  </outline>
</glyph>
<glyph name="pi" format="1">
  <advance width="678"/>
  <unicode hex="03C0"/>
  <outline>
    <contour>
      <point x="630" y="424" type="curve"/>
      <point x="637" y="456"/>
      <point x="641" y="504"/>
      <point x="637" y="540" type="curve"/>
      <point x="494" y="549"/>
      <point x="179" y="556"/>
      <point x="33" y="552" type="curve"/>
      <point x="21" y="522"/>
      <point x="14" y="470"/>
      <point x="28" y="409" type="curve"/>
      <point x="115" y="421"/>
      <point x="285" y="431"/>
      <point x="392" y="431" type="curve" smooth="yes"/>
      <point x="461" y="431"/>
      <point x="562" y="428"/>
    </contour>
    <contour>
      <point x="526" y="8" type="curve" smooth="yes"/>
      <point x="626" y="8"/>
      <point x="652" y="99"/>
      <point x="654" y="166" type="curve"/>
      <point x="629" y="184"/>
      <point x="596" y="196"/>
      <point x="565" y="199" type="curve"/>
      <point x="563" y="121"/>
      <point x="554" y="87"/>
      <point x="535" y="87" type="curve" smooth="yes"/>
      <point x="500" y="87"/>
      <point x="491" y="171"/>
      <point x="491" y="271" type="curve" smooth="yes"/>
      <point x="491" y="335"/>
      <point x="500" y="404"/>
      <point x="510" y="470" type="curve"/>
      <point x="380" y="473" type="line"/>
      <point x="373" y="412"/>
      <point x="366" y="350"/>
      <point x="366" y="288" type="curve" smooth="yes"/>
      <point x="366" y="104"/>
      <point x="430" y="8"/>
    </contour>
    <contour>
      <point x="253" y="495" type="curve"/>
      <point x="144" y="499" type="line"/>
      <point x="151" y="437"/>
      <point x="154" y="389"/>
      <point x="148" y="294" type="curve" smooth="yes"/>
      <point x="142" y="192"/>
      <point x="129" y="129"/>
      <point x="96" y="15" type="curve"/>
      <point x="136" y="2"/>
      <point x="197" y="0"/>
      <point x="228" y="8" type="curve"/>
      <point x="255" y="124"/>
      <point x="265" y="203"/>
      <point x="265" y="312" type="curve" smooth="yes"/>
      <point x="265" y="371"/>
      <point x="261" y="438"/>
    </contour>
  </outline>
</glyph>
<glyph name="endash" format="1">
  <advance width="465"/>
  <unicode hex="2013"/>
  <outline>
    <contour>
      <point x="32" y="301"/>
      <point x="29" y="275"/>
      <point x="27" y="244" type="curve"/>
      <point x="127" y="221"/>
      <point x="296" y="217"/>
      <point x="426" y="236" type="curve"/>
      <point x="433" y="263"/>
      <point x="437" y="293"/>
      <point x="437" y="321" type="curve"/>
      <point x="390" y="316"/>
      <point x="334" y="313"/>
      <point x="273" y="313" type="curve" smooth="yes"/>
      <point x="219" y="313"/>
      <point x="104" y="319"/>
      <point x="36" y="329" type="curve"/>
    </contour>
  </outline>
</glyph>
<glyph name="emdash" format="1">
  <advance width="796"/>
  <unicode hex="2014"/>
  <outline>
    <contour>
      <point x="32" y="297"/>
      <point x="29" y="271"/>
      <point x="27" y="239" type="curve"/>
      <point x="221" y="201"/>
      <point x="523" y="194"/>
      <point x="757" y="232" type="curve"/>
      <point x="764" y="259"/>
      <point x="768" y="289"/>
      <point x="768" y="316" type="curve"/>
      <point x="688" y="308"/>
      <point x="572" y="298"/>
      <point x="445" y="298" type="curve" smooth="yes"/>
      <point x="241" y="298"/>
      <point x="137" y="309"/>
      <point x="36" y="325" type="curve"/>
    </contour>
  </outline>
</glyph>
<glyph name="quoteleft" format="1">
  <advance width="189"/>
  <unicode hex="2018"/>
  <outline>
    <contour>
      <point x="15" y="728" type="curve"/>
      <point x="16" y="646"/>
      <point x="31" y="580"/>
      <point x="67" y="484" type="curve"/>
      <point x="99" y="484"/>
      <point x="129" y="487"/>
      <point x="154" y="493" type="curve"/>
      <point x="130" y="597"/>
      <point x="126" y="671"/>
      <point x="130" y="738" type="curve"/>
      <point x="93" y="741"/>
      <point x="51" y="738"/>
    </contour>
  </outline>
</glyph>
<glyph name="quoteright" format="1">
  <advance width="185"/>
  <unicode hex="2019"/>
  <outline>
    <contour>
      <point x="158" y="729" type="curve"/>
      <point x="121" y="738"/>
      <point x="78" y="739"/>
      <point x="43" y="736" type="curve"/>
      <point x="47" y="674"/>
      <point x="41" y="597"/>
      <point x="22" y="497" type="curve"/>
      <point x="45" y="490"/>
      <point x="76" y="485"/>
      <point x="108" y="484" type="curve"/>
      <point x="145" y="592"/>
      <point x="157" y="650"/>
    </contour>
  </outline>
</glyph>
<glyph name="dagger" format="1">
  <advance width="484"/>
  <unicode hex="2020"/>
  <outline>
    <contour>
      <point x="288" y="718" type="curve"/>
      <point x="275" y="721"/>
      <point x="259" y="723"/>
      <point x="246" y="723" type="curve" smooth="yes"/>
      <point x="225" y="723"/>
      <point x="202" y="718"/>
      <point x="191" y="712" type="curve"/>
      <point x="195" y="641"/>
      <point x="201" y="582"/>
      <point x="210" y="500" type="curve"/>
      <point x="228" y="499"/>
      <point x="262" y="502"/>
      <point x="273" y="506" type="curve"/>
      <point x="283" y="600"/>
      <point x="286" y="661"/>
    </contour>
    <contour>
      <point x="35" y="555" type="curve"/>
      <point x="32" y="542"/>
      <point x="30" y="531"/>
      <point x="30" y="517" type="curve" smooth="yes"/>
      <point x="29" y="498"/>
      <point x="35" y="472"/>
      <point x="39" y="460" type="curve"/>
      <point x="110" y="470"/>
      <point x="163" y="476"/>
      <point x="250" y="474" type="curve"/>
      <point x="252" y="492"/>
      <point x="250" y="524"/>
      <point x="246" y="536" type="curve"/>
      <point x="156" y="547"/>
      <point x="89" y="556"/>
    </contour>
    <contour>
      <point x="446" y="456" type="curve"/>
      <point x="449" y="469"/>
      <point x="451" y="482"/>
      <point x="451" y="496" type="curve" smooth="yes"/>
      <point x="452" y="515"/>
      <point x="447" y="539"/>
      <point x="442" y="551" type="curve"/>
      <point x="373" y="544"/>
      <point x="313" y="541"/>
      <point x="234" y="537" type="curve"/>
      <point x="232" y="518"/>
      <point x="235" y="488"/>
      <point x="237" y="475" type="curve"/>
      <point x="330" y="464"/>
      <point x="390" y="457"/>
    </contour>
    <contour>
      <point x="208" y="-213" type="curve"/>
      <point x="226" y="-216"/>
      <point x="261" y="-215"/>
      <point x="280" y="-213" type="curve"/>
      <point x="279" y="77"/>
      <point x="294" y="267"/>
      <point x="272" y="515" type="curve"/>
      <point x="255" y="516"/>
      <point x="220" y="513"/>
      <point x="209" y="509" type="curve"/>
      <point x="193" y="293"/>
      <point x="199" y="52"/>
    </contour>
  </outline>
</glyph>
<glyph name="perthousand" format="1">
  <advance width="1270"/>
  <unicode hex="2030"/>
  <outline>
    <contour>
      <point x="231" y="767" type="curve"/>
      <point x="109" y="767"/>
      <point x="30" y="672"/>
      <point x="30" y="532" type="curve" smooth="yes"/>
      <point x="30" y="428"/>
      <point x="75" y="332"/>
      <point x="182" y="332" type="curve" smooth="yes"/>
      <point x="329" y="332"/>
      <point x="380" y="478"/>
      <point x="380" y="595" type="curve" smooth="yes"/>
      <point x="380" y="703"/>
      <point x="325" y="767"/>
    </contour>
    <contour>
      <point x="211" y="700" type="curve" smooth="yes"/>
      <point x="250" y="700"/>
      <point x="270" y="659"/>
      <point x="270" y="562" type="curve" smooth="yes"/>
      <point x="270" y="483"/>
      <point x="251" y="399"/>
      <point x="204" y="399" type="curve" smooth="yes"/>
      <point x="159" y="399"/>
      <point x="137" y="474"/>
      <point x="137" y="546" type="curve" smooth="yes"/>
      <point x="137" y="641"/>
      <point x="168" y="700"/>
    </contour>
    <contour>
      <point x="696" y="419" type="curve"/>
      <point x="574" y="419"/>
      <point x="495" y="324"/>
      <point x="495" y="184" type="curve" smooth="yes"/>
      <point x="495" y="80"/>
      <point x="540" y="-15"/>
      <point x="647" y="-15" type="curve" smooth="yes"/>
      <point x="794" y="-15"/>
      <point x="845" y="130"/>
      <point x="845" y="247" type="curve" smooth="yes"/>
      <point x="845" y="355"/>
      <point x="790" y="419"/>
    </contour>
    <contour>
      <point x="676" y="352" type="curve" smooth="yes"/>
      <point x="715" y="352"/>
      <point x="735" y="311"/>
      <point x="735" y="214" type="curve" smooth="yes"/>
      <point x="735" y="135"/>
      <point x="716" y="51"/>
      <point x="669" y="51" type="curve" smooth="yes"/>
      <point x="624" y="51"/>
      <point x="602" y="126"/>
      <point x="602" y="198" type="curve" smooth="yes"/>
      <point x="602" y="293"/>
      <point x="633" y="352"/>
    </contour>
    <contour>
      <point x="1091" y="419" type="curve"/>
      <point x="969" y="419"/>
      <point x="890" y="324"/>
      <point x="890" y="184" type="curve" smooth="yes"/>
      <point x="890" y="80"/>
      <point x="935" y="-15"/>
      <point x="1042" y="-15" type="curve" smooth="yes"/>
      <point x="1189" y="-15"/>
      <point x="1240" y="130"/>
      <point x="1240" y="247" type="curve" smooth="yes"/>
      <point x="1240" y="355"/>
      <point x="1185" y="419"/>
    </contour>
    <contour>
      <point x="1071" y="352" type="curve" smooth="yes"/>
      <point x="1110" y="352"/>
      <point x="1130" y="311"/>
      <point x="1130" y="214" type="curve" smooth="yes"/>
      <point x="1130" y="135"/>
      <point x="1111" y="51"/>
      <point x="1064" y="51" type="curve" smooth="yes"/>
      <point x="1019" y="51"/>
      <point x="997" y="126"/>
      <point x="997" y="198" type="curve" smooth="yes"/>
      <point x="997" y="293"/>
      <point x="1028" y="352"/>
    </contour>
    <component base="fraction" xOffset="240" yOffset="-3"/>
  </outline>
</glyph>
<glyph name="fraction" format="1">
  <advance width="330"/>
  <unicode hex="2044"/>
  <outline>
    <contour>
      <point x="171" y="249"/>
      <point x="283" y="470"/>
      <point x="395" y="742" type="curve"/>
      <point x="366" y="770"/>
      <point x="331" y="786"/>
      <point x="302" y="793" type="curve"/>
      <point x="200" y="521"/>
      <point x="77" y="267"/>
      <point x="-65" y="8" type="curve"/>
      <point x="-43" y="-9"/>
      <point x="-21" y="-24"/>
      <point x="12" y="-32" type="curve"/>
    </contour>
  </outline>
</glyph>
<glyph name="uni20BD" format="1">
  <advance width="599"/>
  <unicode hex="20BD"/>
  <outline>
    <contour>
      <point x="257" y="-33" type="curve"/>
      <point x="247" y="84"/>
      <point x="243" y="173"/>
      <point x="243" y="284" type="curve" smooth="yes"/>
      <point x="243" y="403"/>
      <point x="249" y="522"/>
      <point x="263" y="654" type="curve"/>
      <point x="123" y="662" type="line"/>
      <point x="119" y="613"/>
      <point x="116" y="548"/>
      <point x="116" y="500" type="curve" smooth="yes"/>
      <point x="116" y="342"/>
      <point x="124" y="202"/>
      <point x="146" y="-26" type="curve"/>
      <point x="179" y="-32"/>
      <point x="222" y="-34"/>
    </contour>
    <contour>
      <point x="564" y="524" type="curve" smooth="yes"/>
      <point x="564" y="628"/>
      <point x="483" y="704"/>
      <point x="320" y="704" type="curve" smooth="yes"/>
      <point x="253" y="704"/>
      <point x="185" y="688"/>
      <point x="123" y="662" type="curve"/>
      <point x="201" y="586" type="line"/>
      <point x="237" y="613"/>
      <point x="272" y="627"/>
      <point x="311" y="627" type="curve" smooth="yes"/>
      <point x="386" y="627"/>
      <point x="426" y="588"/>
      <point x="426" y="520" type="curve" smooth="yes"/>
      <point x="426" y="401"/>
      <point x="317" y="323"/>
      <point x="25" y="351" type="curve"/>
      <point x="21" y="328"/>
      <point x="22" y="302"/>
      <point x="26" y="272" type="curve"/>
      <point x="353" y="237"/>
      <point x="564" y="339"/>
    </contour>
    <contour>
      <point x="378" y="144" type="curve"/>
      <point x="385" y="163"/>
      <point x="384" y="200"/>
      <point x="382" y="219" type="curve"/>
      <point x="239" y="198"/>
      <point x="149" y="200"/>
      <point x="25" y="210" type="curve"/>
      <point x="20" y="186"/>
      <point x="24" y="147"/>
      <point x="27" y="127" type="curve"/>
      <point x="114" y="115"/>
      <point x="230" y="118"/>
    </contour>
  </outline>
</glyph>
<glyph name="trademark" format="1">
  <advance width="816"/>
  <unicode hex="2122"/>
  <outline>
    <contour>
      <point x="487" y="357" type="curve"/>
      <point x="470" y="426"/>
      <point x="460" y="520"/>
      <point x="460" y="608" type="curve" smooth="yes"/>
      <point x="460" y="638"/>
      <point x="460" y="680"/>
      <point x="469" y="732" type="curve"/>
      <point x="371" y="735" type="line"/>
      <point x="370" y="619"/>
      <point x="381" y="450"/>
      <point x="396" y="348" type="curve"/>
      <point x="425" y="348"/>
      <point x="471" y="352"/>
    </contour>
    <contour>
      <point x="762" y="334" type="curve"/>
      <point x="763" y="446"/>
      <point x="762" y="620"/>
      <point x="756" y="745" type="curve"/>
      <point x="673" y="745" type="line"/>
      <point x="674" y="623"/>
      <point x="665" y="430"/>
      <point x="659" y="316" type="curve"/>
      <point x="707" y="316"/>
      <point x="734" y="323"/>
    </contour>
    <contour>
      <point x="590" y="466" type="curve"/>
      <point x="645" y="540"/>
      <point x="700" y="636"/>
      <point x="756" y="745" type="curve"/>
      <point x="732" y="756"/>
      <point x="710" y="763"/>
      <point x="678" y="768" type="curve"/>
      <point x="648" y="680"/>
      <point x="619" y="622"/>
      <point x="571" y="549" type="curve"/>
      <point x="591" y="547" type="line"/>
      <point x="559" y="634"/>
      <point x="512" y="713"/>
      <point x="466" y="773" type="curve"/>
      <point x="436" y="769"/>
      <point x="396" y="752"/>
      <point x="371" y="735" type="curve"/>
      <point x="443" y="656"/>
      <point x="491" y="564"/>
      <point x="537" y="459" type="curve"/>
      <point x="554" y="459"/>
      <point x="573" y="462"/>
    </contour>
    <contour>
      <point x="318" y="692" type="curve"/>
      <point x="321" y="702"/>
      <point x="323" y="717"/>
      <point x="323" y="733" type="curve" smooth="yes"/>
      <point x="323" y="748"/>
      <point x="322" y="762"/>
      <point x="318" y="774" type="curve"/>
      <point x="198" y="773"/>
      <point x="115" y="765"/>
      <point x="11" y="743" type="curve"/>
      <point x="11" y="721"/>
      <point x="15" y="696"/>
      <point x="24" y="673" type="curve"/>
      <point x="132" y="685"/>
      <point x="210" y="692"/>
    </contour>
    <contour>
      <point x="226" y="358" type="curve"/>
      <point x="230" y="407"/>
      <point x="234" y="462"/>
      <point x="234" y="515" type="curve" smooth="yes"/>
      <point x="234" y="603"/>
      <point x="230" y="679"/>
      <point x="222" y="744" type="curve"/>
      <point x="178" y="744"/>
      <point x="144" y="740"/>
      <point x="110" y="733" type="curve"/>
      <point x="128" y="626"/>
      <point x="136" y="450"/>
      <point x="135" y="348" type="curve"/>
      <point x="175" y="348"/>
      <point x="201" y="352"/>
    </contour>
  </outline>
</glyph>
<glyph name="estimated" format="1">
  <advance width="702"/>
  <unicode hex="212E"/>
  <outline>
    <contour>
      <point x="657" y="267" type="line" name=""/>
      <point x="657" y="274" type="line" smooth="yes" name=""/>
      <point x="657" y="426" name=""/>
      <point x="520" y="551" name=""/>
      <point x="351" y="551" type="curve" smooth="yes" name=""/>
      <point x="182" y="551" name=""/>
      <point x="45" y="426" name=""/>
      <point x="45" y="274" type="curve" smooth="yes" name=""/>
      <point x="45" y="122" name=""/>
      <point x="182" y="-1" name=""/>
      <point x="351" y="-1" type="curve" smooth="yes" name=""/>
      <point x="451" y="-1" name=""/>
      <point x="537" y="42" name=""/>
      <point x="593" y="106" type="curve" name=""/>
      <point x="549" y="106" type="line" name=""/>
      <point x="501" y="50" name=""/>
      <point x="432" y="16" name=""/>
      <point x="352" y="16" type="curve" smooth="yes" name=""/>
      <point x="277" y="16" name=""/>
      <point x="211" y="47" name=""/>
      <point x="164" y="96" type="curve" name=""/>
      <point x="159" y="102" name=""/>
      <point x="157" y="108" name=""/>
      <point x="157" y="114" type="curve" smooth="yes" name=""/>
      <point x="157" y="264" type="line" smooth="yes" name=""/>
      <point x="157" y="266" name=""/>
      <point x="158" y="267" name=""/>
      <point x="161" y="267" type="curve" smooth="yes" name=""/>
    </contour>
    <contour>
      <point x="545" y="286" type="line" smooth="yes" name=""/>
      <point x="545" y="283" name=""/>
      <point x="544" y="282" name=""/>
      <point x="542" y="282" type="curve" smooth="yes" name=""/>
      <point x="161" y="282" type="line" smooth="yes" name=""/>
      <point x="158" y="282" name=""/>
      <point x="157" y="283" name=""/>
      <point x="157" y="286" type="curve" smooth="yes" name=""/>
      <point x="157" y="434" type="line" smooth="yes" name=""/>
      <point x="157" y="443" name=""/>
      <point x="160" y="449" name=""/>
      <point x="165" y="453" type="curve" name=""/>
      <point x="212" y="504" name=""/>
      <point x="279" y="534" name=""/>
      <point x="352" y="534" type="curve" smooth="yes" name=""/>
      <point x="425" y="534" name=""/>
      <point x="490" y="504" name=""/>
      <point x="537" y="456" type="curve" smooth="yes" name=""/>
      <point x="542" y="451" name=""/>
      <point x="545" y="444" name=""/>
      <point x="545" y="437" type="curve" smooth="yes" name=""/>
    </contour>
  </outline>
</glyph>
<glyph name="uni2206" format="1">
  <advance width="664"/>
  <unicode hex="2206"/>
  <outline>
    <contour>
      <point x="565" y="101" type="line"/>
      <point x="431" y="85"/>
      <point x="234" y="86"/>
      <point x="101" y="106" type="curve"/>
      <point x="135" y="51" type="line"/>
      <point x="195" y="284"/>
      <point x="274" y="511"/>
      <point x="360" y="695" type="curve"/>
      <point x="327" y="699" type="line"/>
      <point x="415" y="500"/>
      <point x="485" y="258"/>
      <point x="514" y="45" type="curve"/>
    </contour>
    <contour>
      <point x="655" y="6" type="curve"/>
      <point x="617" y="272"/>
      <point x="521" y="578"/>
      <point x="411" y="786" type="curve"/>
      <point x="372" y="796"/>
      <point x="341" y="799"/>
      <point x="291" y="800" type="curve"/>
      <point x="168" y="543"/>
      <point x="89" y="323"/>
      <point x="6" y="19" type="curve"/>
      <point x="227" y="-16"/>
      <point x="450" y="-16"/>
    </contour>
  </outline>
</glyph>
<glyph name="summation" format="1">
  <advance width="483"/>
  <unicode hex="2211"/>
  <outline>
    <contour>
      <point x="46" y="-42" type="curve"/>
      <point x="183" y="-41"/>
      <point x="388" y="-25"/>
      <point x="483" y="-7" type="curve"/>
      <point x="484" y="23"/>
      <point x="480" y="72"/>
      <point x="472" y="95" type="curve"/>
      <point x="389" y="77"/>
      <point x="271" y="64"/>
      <point x="173" y="60" type="curve"/>
      <point x="255" y="164"/>
      <point x="319" y="260"/>
      <point x="382" y="376" type="curve"/>
      <point x="273" y="461"/>
      <point x="186" y="539"/>
      <point x="123" y="612" type="curve"/>
      <point x="225" y="623"/>
      <point x="322" y="628"/>
      <point x="418" y="629" type="curve"/>
      <point x="424" y="658"/>
      <point x="429" y="695"/>
      <point x="429" y="735" type="curve"/>
      <point x="263" y="733"/>
      <point x="139" y="714"/>
      <point x="-4" y="688" type="curve"/>
      <point x="-5" y="659"/>
      <point x="-4" y="633"/>
      <point x="-1" y="605" type="curve"/>
      <point x="61" y="527"/>
      <point x="152" y="445"/>
      <point x="260" y="358" type="curve"/>
      <point x="195" y="241"/>
      <point x="130" y="154"/>
      <point x="35" y="41" type="curve"/>
      <point x="36" y="12"/>
      <point x="41" y="-14"/>
    </contour>
  </outline>
</glyph>
<glyph name="infinity" format="1">
  <advance width="645"/>
  <unicode hex="221E"/>
  <outline>
    <contour>
      <point x="619" y="347" type="curve" smooth="yes"/>
      <point x="619" y="447"/>
      <point x="556" y="520"/>
      <point x="464" y="520" type="curve" smooth="yes"/>
      <point x="394" y="520"/>
      <point x="352" y="478"/>
      <point x="307" y="408" type="curve"/>
      <point x="365" y="330" type="line"/>
      <point x="398" y="388"/>
      <point x="429" y="433"/>
      <point x="474" y="433" type="curve" smooth="yes"/>
      <point x="520" y="434"/>
      <point x="545" y="399"/>
      <point x="545" y="347" type="curve" smooth="yes"/>
      <point x="545" y="298"/>
      <point x="521" y="266"/>
      <point x="484" y="266" type="curve" smooth="yes"/>
      <point x="438" y="266"/>
      <point x="407" y="309"/>
      <point x="360" y="379" type="curve" smooth="yes"/>
      <point x="297" y="461"/>
      <point x="247" y="512"/>
      <point x="172" y="512" type="curve" smooth="yes"/>
      <point x="88" y="512"/>
      <point x="25" y="442"/>
      <point x="25" y="342" type="curve" smooth="yes"/>
      <point x="25" y="244"/>
      <point x="84" y="172"/>
      <point x="177" y="172" type="curve" smooth="yes"/>
      <point x="250" y="172"/>
      <point x="299" y="212"/>
      <point x="340" y="285" type="curve"/>
      <point x="283" y="369" type="line"/>
      <point x="247" y="299"/>
      <point x="214" y="265"/>
      <point x="163" y="265" type="curve" smooth="yes"/>
      <point x="121" y="266"/>
      <point x="98" y="298"/>
      <point x="98" y="342" type="curve" smooth="yes"/>
      <point x="98" y="389"/>
      <point x="126" y="419"/>
      <point x="164" y="419" type="curve" smooth="yes"/>
      <point x="211" y="419"/>
      <point x="239" y="379"/>
      <point x="281" y="312" type="curve" smooth="yes"/>
      <point x="339" y="224"/>
      <point x="392" y="172"/>
      <point x="467" y="172" type="curve" smooth="yes"/>
      <point x="555" y="172"/>
      <point x="619" y="248"/>
    </contour>
  </outline>
</glyph>
<glyph name="lessequal" format="1">
  <advance width="420"/>
  <unicode hex="2264"/>
  <outline>
    <contour>
      <point x="28" y="62" type="curve"/>
      <point x="133" y="48"/>
      <point x="269" y="46"/>
      <point x="380" y="62" type="curve"/>
      <point x="387" y="88"/>
      <point x="391" y="115"/>
      <point x="391" y="142" type="curve"/>
      <point x="255" y="129"/>
      <point x="145" y="130"/>
      <point x="34" y="144" type="curve"/>
      <point x="30" y="115"/>
      <point x="28" y="92"/>
    </contour>
    <contour>
      <point x="75" y="336" type="line"/>
      <point x="167" y="404"/>
      <point x="267" y="460"/>
      <point x="390" y="512" type="curve"/>
      <point x="384" y="541"/>
      <point x="378" y="559"/>
      <point x="365" y="586" type="curve"/>
      <point x="251" y="541"/>
      <point x="118" y="470"/>
      <point x="30" y="404" type="curve"/>
      <point x="29" y="355" type="line"/>
      <point x="112" y="290"/>
      <point x="249" y="217"/>
      <point x="364" y="173" type="curve"/>
      <point x="377" y="198"/>
      <point x="384" y="218"/>
      <point x="389" y="247" type="curve"/>
      <point x="266" y="299"/>
      <point x="160" y="356"/>
      <point x="73" y="423" type="curve"/>
    </contour>
  </outline>
</glyph>
<glyph name="greaterequal" format="1">
  <advance width="420"/>
  <unicode hex="2265"/>
  <outline>
    <contour>
      <point x="26" y="62" type="curve"/>
      <point x="131" y="48"/>
      <point x="268" y="46"/>
      <point x="379" y="62" type="curve"/>
      <point x="386" y="88"/>
      <point x="389" y="115"/>
      <point x="389" y="142" type="curve"/>
      <point x="253" y="129"/>
      <point x="143" y="130"/>
      <point x="33" y="144" type="curve"/>
      <point x="28" y="115"/>
      <point x="26" y="92"/>
    </contour>
    <contour>
      <point x="345" y="317" type="curve"/>
      <point x="350" y="404" type="line"/>
      <point x="255" y="342"/>
      <point x="151" y="292"/>
      <point x="26" y="246" type="curve"/>
      <point x="30" y="216"/>
      <point x="35" y="198"/>
      <point x="45" y="170" type="curve"/>
      <point x="161" y="209"/>
      <point x="299" y="271"/>
      <point x="390" y="333" type="curve"/>
      <point x="394" y="382" type="line"/>
      <point x="315" y="452"/>
      <point x="183" y="533"/>
      <point x="71" y="583" type="curve"/>
      <point x="56" y="559"/>
      <point x="47" y="539"/>
      <point x="40" y="511" type="curve"/>
      <point x="160" y="452"/>
      <point x="263" y="390"/>
    </contour>
  </outline>
</glyph>
<glyph name="lozenge" format="1">
  <advance width="447"/>
  <unicode hex="25CA"/>
  <outline>
    <contour>
      <point x="248" y="40" type="line"/>
      <point x="313" y="123"/>
      <point x="377" y="239"/>
      <point x="429" y="376" type="curve"/>
      <point x="385" y="490"/>
      <point x="314" y="624"/>
      <point x="248" y="711" type="curve"/>
      <point x="198" y="713" type="line"/>
      <point x="127" y="621"/>
      <point x="79" y="534"/>
      <point x="17" y="377" type="curve"/>
      <point x="62" y="263"/>
      <point x="133" y="129"/>
      <point x="199" y="42" type="curve"/>
    </contour>
    <contour>
      <point x="224" y="148" type="curve"/>
      <point x="180" y="217"/>
      <point x="140" y="290"/>
      <point x="101" y="378" type="curve"/>
      <point x="139" y="464"/>
      <point x="178" y="540"/>
      <point x="222" y="605" type="curve"/>
      <point x="267" y="536"/>
      <point x="307" y="463"/>
      <point x="345" y="375" type="curve"/>
      <point x="308" y="289"/>
      <point x="268" y="213"/>
    </contour>
  </outline>
</glyph>
<glyph name="fi" format="1">
  <advance width="587"/>
  <outline>
    <contour>
      <point x="88" y="396" type="curve" smooth="yes"/>
      <point x="88" y="627"/>
      <point x="156" y="727"/>
      <point x="268" y="727" type="curve" smooth="yes"/>
      <point x="353" y="727"/>
      <point x="391" y="666"/>
      <point x="391" y="599" type="curve" smooth="yes"/>
      <point x="391" y="580"/>
      <point x="387" y="557"/>
      <point x="380" y="543" type="curve"/>
      <point x="346" y="543"/>
      <point x="313" y="549"/>
      <point x="285" y="558" type="curve"/>
      <point x="290" y="571"/>
      <point x="293" y="587"/>
      <point x="293" y="603" type="curve" smooth="yes"/>
      <point x="293" y="633"/>
      <point x="283" y="649"/>
      <point x="266" y="649" type="curve" smooth="yes"/>
      <point x="224" y="649"/>
      <point x="205" y="571"/>
      <point x="205" y="448" type="curve" smooth="yes"/>
      <point x="205" y="278"/>
      <point x="239" y="84"/>
      <point x="260" y="1" type="curve"/>
      <point x="225" y="-11"/>
      <point x="172" y="-21"/>
      <point x="127" y="-21" type="curve"/>
      <point x="114" y="38"/>
      <point x="88" y="236"/>
    </contour>
    <contour>
      <point x="352" y="458" type="curve"/>
      <point x="352" y="433"/>
      <point x="348" y="397"/>
      <point x="344" y="377" type="curve"/>
      <point x="328" y="372"/>
      <point x="305" y="370"/>
      <point x="264" y="370" type="curve" smooth="yes"/>
      <point x="153" y="370"/>
      <point x="56" y="389"/>
      <point x="22" y="403" type="curve"/>
      <point x="22" y="419"/>
      <point x="28" y="458"/>
      <point x="35" y="466" type="curve"/>
      <point x="86" y="458"/>
      <point x="178" y="452"/>
      <point x="259" y="452" type="curve" smooth="yes"/>
      <point x="298" y="452"/>
      <point x="330" y="454"/>
    </contour>
    <contour>
      <point x="551" y="640"/>
      <point x="567" y="692"/>
      <point x="579" y="720" type="curve"/>
      <point x="563" y="729"/>
      <point x="541" y="734"/>
      <point x="512" y="735" type="curve" smooth="yes"/>
      <point x="483" y="735"/>
      <point x="461" y="731"/>
      <point x="440" y="720" type="curve"/>
      <point x="431" y="699"/>
      <point x="428" y="670"/>
      <point x="428" y="649" type="curve" smooth="yes"/>
      <point x="428" y="629"/>
      <point x="431" y="611"/>
      <point x="435" y="595" type="curve"/>
      <point x="482" y="594"/>
      <point x="517" y="596"/>
      <point x="543" y="600" type="curve"/>
    </contour>
    <contour>
      <point x="529" y="508"/>
      <point x="513" y="509"/>
      <point x="498" y="509" type="curve" smooth="yes"/>
      <point x="465" y="509"/>
      <point x="434" y="502"/>
      <point x="409" y="488" type="curve"/>
      <point x="382" y="344"/>
      <point x="381" y="119"/>
      <point x="400" y="-20" type="curve"/>
      <point x="408" y="-22"/>
      <point x="418" y="-23"/>
      <point x="431" y="-23" type="curve" smooth="yes"/>
      <point x="456" y="-23"/>
      <point x="485" y="-19"/>
      <point x="504" y="-9" type="curve"/>
      <point x="501" y="193"/>
      <point x="520" y="396"/>
      <point x="546" y="504" type="curve"/>
    </contour>
  </outline>
</glyph>
<glyph name="fl" format="1">
  <advance width="603"/>
  <outline>
    <contour>
      <point x="88" y="396" type="curve" smooth="yes"/>
      <point x="88" y="627"/>
      <point x="154" y="727"/>
      <point x="263" y="727" type="curve" smooth="yes"/>
      <point x="346" y="727"/>
      <point x="384" y="666"/>
      <point x="384" y="599" type="curve" smooth="yes"/>
      <point x="384" y="580"/>
      <point x="379" y="557"/>
      <point x="373" y="543" type="curve"/>
      <point x="339" y="543"/>
      <point x="306" y="549"/>
      <point x="278" y="558" type="curve"/>
      <point x="282" y="571"/>
      <point x="285" y="587"/>
      <point x="285" y="603" type="curve" smooth="yes"/>
      <point x="285" y="630"/>
      <point x="276" y="649"/>
      <point x="261" y="649" type="curve" smooth="yes"/>
      <point x="223" y="649"/>
      <point x="205" y="571"/>
      <point x="205" y="448" type="curve" smooth="yes"/>
      <point x="205" y="278"/>
      <point x="239" y="84"/>
      <point x="260" y="1" type="curve"/>
      <point x="225" y="-11"/>
      <point x="172" y="-21"/>
      <point x="127" y="-21" type="curve"/>
      <point x="114" y="38"/>
      <point x="88" y="236"/>
    </contour>
    <contour>
      <point x="259" y="452" type="curve" smooth="yes"/>
      <point x="298" y="452"/>
      <point x="330" y="454"/>
      <point x="352" y="458" type="curve"/>
      <point x="352" y="433"/>
      <point x="348" y="397"/>
      <point x="344" y="377" type="curve"/>
      <point x="328" y="372"/>
      <point x="305" y="370"/>
      <point x="264" y="370" type="curve" smooth="yes"/>
      <point x="153" y="370"/>
      <point x="56" y="389"/>
      <point x="22" y="403" type="curve"/>
      <point x="22" y="419"/>
      <point x="28" y="458"/>
      <point x="35" y="466" type="curve"/>
      <point x="86" y="458"/>
      <point x="178" y="452"/>
    </contour>
    <contour>
      <point x="430" y="-61" type="curve"/>
      <point x="465" y="-61"/>
      <point x="519" y="-55"/>
      <point x="541" y="-48" type="curve"/>
      <point x="532" y="184"/>
      <point x="534" y="534"/>
      <point x="554" y="734" type="curve"/>
      <point x="532" y="740"/>
      <point x="512" y="742"/>
      <point x="491" y="742" type="curve" smooth="yes"/>
      <point x="457" y="742"/>
      <point x="427" y="732"/>
      <point x="410" y="721" type="curve"/>
      <point x="401" y="461"/>
      <point x="411" y="188"/>
    </contour>
  </outline>
</glyph>
<glyph name="uni2219" format="1">
  <advance width="230"/>
  <outline>
    <contour>
      <point x="202" y="307"/>
      <point x="204" y="355"/>
      <point x="208" y="412" type="curve"/>
      <point x="130" y="423"/>
      <point x="67" y="414"/>
      <point x="22" y="404" type="curve"/>
      <point x="22" y="349"/>
      <point x="26" y="313"/>
      <point x="29" y="253" type="curve"/>
      <point x="82" y="246"/>
      <point x="129" y="245"/>
      <point x="193" y="252" type="curve"/>
    </contour>
  </outline>
</glyph>
